/* XPM */
static char *result[] = {
/* columns rows colors chars-per-pixel */
"64 64 25 1 ",
"  c #250F05",
". c #250F0A",
"X c #280F0A",
"o c #251107",
"O c #291307",
"+ c #26130B",
"@ c #2A150C",
"# c #2D190E",
"$ c #31160D",
"% c #311A0E",
"& c #381A0F",
"* c #2D1610",
"= c #2E1A11",
"- c #301711",
"; c #351E14",
": c #391E15",
"> c #351E18",
", c #391F18",
"< c #35200F",
"1 c #362115",
"2 c #382116",
"3 c #372118",
"4 c #3A2219",
"5 c #3A2819",
"6 c #40251E",
/* pixels */
":%2;OO<12%$$%%<<5>+@=52&1;:&$%=++;22:::;:;:131;;X@O+##<13;;%%2%%",
"%;11##11:2:%;;2<3>=+=1232%22123+#%3;;;3;:6:;;;>,*XO##;1222::4213",
"1331#%<1;2;$O<<&==+@#<31:;&<%1# #13;>>:32&:::,,,*XX*;:::;;;:;;;=",
";1=#O%1%12;OOO%#@@+@+==<;222%##@+#>>:;;;2&222;;*@@@@%;:4:;;:2311",
"@@@++%31;;-@%#%<>>====;###;#;;%1@#==>>>>1111;*++O+++#<33222:%:1;",
";%=@+;11%#$;2<;224433;;;$O+O=;:<3==#;;;;####@#++++++++=3;:::<;;=",
":::;=**=O%;,,4:2;;::,4222;#@;3121#Oo+OO@##@@@=#===#+@+=*;:221;%=",
"&:22*++@$;44::::22:;:21;:;$@>;%%1#+##*;;::33353;,>>>3==@#%%:%%#+",
";3>>**@+#;>4,,:::;2:;331;4; 135=@#;;;;;;::::::::2%1&&222;XX@*++*",
";;**@*@+@*=>,,,,222;;124$,>X==;#;;;;2;:2::::::::222222<%:;-@++++",
"@++..**+*@*=;,:,113;;%;;;3>@@@**;;;;;2222;3;:1;3<22<2<&1,,:*+***",
"++++*+*+++++@#@-%;3233:;3;-.@+@*113;;;:;;2;2;3:::<:<2222,,:**;>>",
"@***+++*#++@@*@@###%===>;+@O;@*.;;312;:::3;2;:;3222;1;1;31;#;,4:",
"@+++@O*-;>;;;;;1%%OO+++*+o@;2:-@%;1322::2;2;;3:3221;11114=@=;4:;",
"+++@##;:>;;::23%423=*@++++;;2%2###;122::::::::::;;;13111>++#32;&",
"*+*=;,;4,;::::22;;>3=@@++#4:2%21O##1;:::::::::::111131##@++#;2;:",
"+=;223222;23;2;:2;;;;;*X@#53312<=@+@>,,,;;;51<%;5>1;=*@@O+@@#;#=",
"==;32::;;2;:;:2;2;;;,:--+#33>322;#+O#--;6413222;;@=@@#@-$#%#%#@@",
"3;2::;321;:11;23;;22,,,;+#>3;43;=@+.XXOX@$=*###%@+@@*;;322:222;%",
"33223;22:;3;:1;:;;:1;;;,#+=3>3=#@@#*@#XO.++++#%;@+=>;444;;;42222",
";;;2;;22;:3:;:3:;1;1;;;:*.*=;-##=133;>;;=@++#33;;#;111;;;::::::;",
"22;2:1;;2;;232;;::2::;;2>*@*+@@%3311;;;;,>@+#%3;1=11;;;;222222;:",
"2::3;2:;;22;:3;21;2;%2:14**++@#3131>;;;;:43;##%;##133222;:;;;:;;",
"2;;;22221:;1:;2;22:<2:<%>*+++*;2;;1>;22;;;3;<%$O+O152;;:22:;32;;",
";22::2::::::;;,4::;;;32;@O@#+@2;::122231;22:1;;;X*;,;;114>;222:;",
";;:;:26:::::::;;:::313;#$***++3;22:2211;3:2222:3*@;::131;;;:;;;;",
"2242;;3;;;:;,>;:;:23;%%$;;;;##1122&;2;3;2;;322:2;*%22;1;;2:3;;;,",
"@#%;;;33>,;:,,,,;;;%%%%:1213=@>3:%11;>;:;1::;;;;4%O12;;;22;;:3>>",
"OO####*=;-;;----@@@@+#%2%2<1##=3<:2;:;,,1:1;:;;12#O=;1;;2:;;,>>#",
"<%<%@O.+@X##-*@@*X+@#;<2&2111+=313123;;;;:222213;+O#%121::;:4;*O",
"%<11;@+@-;;12;;;-*+*;11226&;;+@=;;;222;:;2:22;1=#++#@%22:::;;*@+",
"2221##@@43>;;;;;,*+#;3;%&2%;=++@*;;2;&222323;;*#++++@%2&2&:*O..*",
"<=#@@#*O;%11%;,:2#@O#%;1;;;;--$##@@##%;#;>;**#@@+@+++**@=***++++",
"#O#%--;%#O#<1:6,%1%+O#%;;;;;:>::;;%#O@@@ O..XXO O@++*@++*++++**+",
"o#;;;;;2#O@%%2:,321#@;2;22:;;;&2;::%*@++###%;;;#@++*++OO++*++**=",
"@<,:::222$#111;;221O@12%;:;&::22;:23=@++%%11;23;=@+*++@#*=*+++=>",
"#=1231112#@>33>3311#O@%2;;::22<<#11<=@==%:1;22;;>*++++#;;11#=+33",
"++#3311<3@+#=;;:21##+O@#;;;223;;511===>3222:22223=@++#;3111<==;5",
"#@#;<;;13*++**=-%Ooo@OO OO#%;>;4;====;33;2;;;:;;3;@+@=323111##@1",
"53%#@=;15=#++@@O%#%##;;;=###=@@@@#@@<3;;;22;22:;3;#+@;3;1%121++<",
";;&%%@O*#@++@;;32:;:3;;;;222;;%##++#132&;3;;;;223>+O>4::1<%22*@+",
";;221#@@##;;>>,;232;;2;:;;;:2;;;==+@=153;;;::;;;%#+@>;;:21;3,;+@",
":222>;@X#%1324:;2222:2;2:32;:;3:1;;#@*;>2222:;;&##+=3;:423;:;;+@",
"2;;;;-*X;;;1;;:::3;23;2;22;;;;;;;1;#@+*;;;;2;;#$#O+=;>::::;23#+#",
"2;%;>;@*111;;;:2:222222;;;:2;;2;&13#@OO*#$%%;$#@+@+@=3:%:,;;;#@#",
";2222>*@<111::;222;2;::1;;;2222232;@O+O#$%%;;;;;####@14;;;;3;;@#",
"%222>-X*O#%<22;%;22;;23;222:2;;;3;=@+#%%;;22:222;;;=#>21;;;;>=+=",
";:2:;X.*OO#<111;2;;1:;1:;;;;;;;1;=@+#12;22:3;;;;2>11+@;1;;;;;*@*",
"1<1%%O +OOO@#%;2=33;;1:%2;;2112<;@#%;;322&:::;;1111=#@O*1333;++=",
"11##O##;;##OO##;3325;1;:2222%<<$+OO#322;;::2231111##+++@@+##@+*=",
"#@@#%%;;;;;%%#O@*==;=11;1111<##O#@OO%;22%2;:22;><<OOO@O##@O#++++",
"o@$;2::%;3352%##+++@=######@OO#+1###O#%12211;;;;O##==;;>3;%%=++.",
"+#;;:::222:;;;22*+++OOO$@@O.O=15%125%##O;=#****#OO;1312422;2;1<#",
"#12;:;22:3;2:232>;@++#%:;>#X#;2433;;3;#Ooo+++++.<1221112;;22333<",
"#11::2;;;;2442;%;;%@#;2234;@%;;26::%;2>=*@++***;121:;;;;:::23111",
"11;&;:4>;;;2:222;;;#%2:;;3*@;;;;::2:;3>>=@+++*>,11;;1221;:22%%;;",
";34::11%2;22222:22:$$24&;:--;4:2;::;12:23=@++;>;;32;;::2:;:;3;:1",
"%;2,:221;;;2;;;;%3%#O;::,;@*>;;2;13;::::3=@+=1>>2:;213;;;:2;:32;",
"%12,;21221;;;;;;>>>*+#;43;@*>>;213;:2;::1<#+=111:;2;:3;2;;23:;;:",
"%;;,,;;;2::3:3:233=*@+*;=@@*,,2%2:22:2;:1<#O1315:1;1:;2;:3;:12;3",
"%%:24:;2:;:;1;;:>>@++.+@+@+@=3412;;23;2;;1++32;11;:33;21;1:;;2:;",
"%%#;>;:2332;2;;;;*++@###@#*.#131::2:;;:;3=+#;:%3;22;:;;:2:122;:3",
"&$@#;%;:;;;;;;%%**##1<;:;>-*@#<4:22:;23;;@+@;;332;;::1:;;:3;;21;",
":#  @#%&%%;&%$@OO;2551;>46,>1#%542222231;++@-:43;1:12;12;3:;2;1:"
};
