/* XPM */
static char *result[] = {
/* columns rows colors chars-per-pixel */
"60 60 160 2 ",
"   c #000000",
".  c #0B0000",
"X  c #000C0C",
"o  c #0B0B0B",
"O  c #1C0101",
"+  c #160C0C",
"@  c #000E10",
"#  c #001313",
"$  c #001C1C",
"%  c #141515",
"&  c #1C1414",
"*  c #141919",
"=  c #1C1C1C",
"-  c #2E0202",
";  c #200F0F",
":  c #320303",
">  c #330C0C",
",  c #3F0809",
"<  c #211F1F",
"1  c #351F1F",
"2  c #002424",
"3  c #002B2B",
"4  c #003232",
"5  c #173738",
"6  c #242323",
"7  c #2C2C2C",
"8  c #312E2E",
"9  c #203131",
"0  c #2C3939",
"q  c #323232",
"w  c #3A3636",
"e  c #303838",
"r  c #3C3C3C",
"t  c #491213",
"y  c #650305",
"u  c #690304",
"i  c #770406",
"p  c #7A0205",
"a  c #3F4040",
"s  c #444444",
"d  c #4C4C4C",
"f  c gray33",
"g  c #5C5C5C",
"h  c #646464",
"j  c #6B6B6B",
"k  c #6F7070",
"l  c #747474",
"z  c #7B7B7B",
"x  c #8B0000",
"c  c #8E080A",
"v  c #930203",
"b  c #9D0305",
"n  c #970508",
"m  c #99070A",
"M  c #981416",
"N  c #A40101",
"B  c #A4090A",
"V  c #A41819",
"C  c #C50000",
"Z  c #D30101",
"A  c #DD0102",
"S  c #D31213",
"D  c #DE1616",
"F  c #E70304",
"G  c #F60101",
"H  c #FD0000",
"J  c #FE0D0C",
"K  c #FE1313",
"L  c #FC1817",
"P  c #FE1C1C",
"I  c #CE3838",
"U  c #FE2424",
"Y  c #FC2728",
"T  c #F62E2C",
"R  c #FE2D2D",
"E  c #F9302D",
"W  c #FF2F30",
"Q  c #F63231",
"!  c #FD3434",
"~  c #F73E3F",
"^  c #FB3C3D",
"/  c #8E5C5C",
"(  c #99706E",
")  c #DA5354",
"_  c #DC5858",
"`  c #F64546",
"'  c #F94242",
"]  c #F64849",
"[  c #FD4F4E",
"{  c #F65152",
"}  c #F85655",
"|  c #F85857",
" . c #F75B5A",
".. c #F85858",
"X. c #F76362",
"o. c #F8716E",
"O. c #F67373",
"+. c #F47C7A",
"@. c #848484",
"#. c #888787",
"$. c #8C8D8D",
"%. c #8F9C9C",
"&. c #949494",
"*. c #979999",
"=. c #9A9A9A",
"-. c #A18484",
";. c #A09E9E",
":. c #9DA0A0",
">. c #A2A3A3",
",. c #A3A8A8",
"<. c #ACACAC",
"1. c #B2B2B2",
"2. c #BCBCBC",
"3. c #D79292",
"4. c #D89E9E",
"5. c #F38281",
"6. c #F58688",
"7. c #F68D8C",
"8. c #FE8F90",
"9. c #F49695",
"0. c #F29997",
"q. c #F39C9C",
"w. c #F99B9B",
"e. c #F6A09F",
"r. c #DAB2B1",
"t. c #DFBFBF",
"y. c #F5A4A3",
"u. c #F9AFAE",
"i. c #F5B4B3",
"p. c #F9B6B5",
"a. c #F5B8B6",
"s. c #F3BEBC",
"d. c #FCB8B9",
"f. c #F4C0BF",
"g. c #C3C3C3",
"h. c #CDCDCD",
"j. c #D4D4D4",
"k. c #DCDCDC",
"l. c #F5C5C4",
"z. c #F7C9C7",
"x. c #F8C8C7",
"c. c #F6CCCC",
"v. c #F8CCCB",
"b. c #F7D0CF",
"n. c #F9CFD0",
"m. c #FAD3D3",
"M. c #F4D8D7",
"N. c #E5E5E5",
"B. c #E5EDED",
"V. c #EBEBEB",
"C. c #F7E5E3",
"Z. c #F9E8E7",
"A. c #F7EAE9",
"S. c #F8ECEC",
"D. c #FAF1EF",
"F. c #F3F3F3",
"G. c #FAF4F3",
"H. c #FAF8F6",
"J. c #FFF7F8",
"K. c #FEFEFE",
/* pixels */
"K.j.N.F.j.H.k.N.F.j.H.k.V.B.j.K.h.F.N.k.H.h.F.N.k.K.h.F.N.k.H.j.F.N.k.F.j.H.k.N.F.h.K.j.N.F.h.K.j.V.F.j.H.j.V.F.j.K.j.V.",
"h.F.N.k.H.j.F.N.k.H.j.F.k.N.F.j.J.k.N.F.j.H.k.N.F.h.H.k.N.F.j.H.k.V.V.k.F.j.F.N.k.H.h.H.N.k.K.h.F.N.k.H.h.H.N.k.F.j.F.N.",
"F.N.N.V.k.F.N.N.V.k.V.N.V.B.k.F.k.F.N.k.V.N.V.V.N.F.N.B.N.N.B.N.V.N.N.V.N.V.N.V.S.k.F.k.V.V.k.F.N.N.V.k.F.N.V.V.k.F.N.N.",
"V.N.N.V.N.V.N.N.N.N.V.N.V.N.N.V.N.N.N.N.@.f l j g z f l j h z g l j j l g z g l N.N.B.N.N.N.N.B.N.N.V.N.N.N.N.N.N.N.N.N.",
"j.F.N.k.F.j.F.N.k.F.k.F.N.N.V.j.F.j.N.B.o                                     * j.F.j.V.N.k.H.j.F.N.k.F.j.F.N.N.F.k.F.N.",
"K.k.N.F.h.K.k.N.F.j.H.j.V.F.N.K.k.H.F.j.d   %         $   @ X @ #         q   h B.N.K.N.F.H.j.K.j.N.F.j.K.j.V.V.j.H.j.V.",
"h.F.N.k.H.j.F.N.k.F.j.F.N.1.1.>.1.<.<.<.7     $.<.,.-.N V N V N N -.,.<.@.    q ;.2.>.1.<.>.h.j.F.N.k.H.j.F.N.k.G.j.F.N.",
"F.k.V.V.k.V.N.N.V.k.V.N.V.&.              6   N.K.K.m.H ! H P H H v.K.K.j.    =             l H.k.V.B.k.F.k.V.V.k.F.k.V.",
"B.N.N.N.N.V.N.N.N.N.V.V.V.=.  q o             j.K.K.v.G W H P H G x.K.K.h.            o 7   $.F.N.B.V.N.B.N.N.N.N.V.N.N.",
"j.F.N.k.F.j.F.N.N.V.g.N.k.h     r j j j j j g N.K.K.v.G R H P H H x.K.K.j.g j j j j j r     #.h.N.k.k.F.j.F.N.N.F.j.F.N.",
"K.j.N.H.h.K.j.N.H.2.g   7 & w   >.K.K.K.K.K.K.K.K.K.b.G R H P H H x.K.K.K.K.K.K.K.K.K.&.  ; & s   g k.j.H.j.V.V.j.J.j.V.",
"j.F.N.k.H.j.F.N.N.F.f   7   0   >.K.K.K.K.K.K.K.K.K.m.G W H P H G v.K.K.K.K.K.K.K.K.K.&.  #       7 k.K.j.F.N.N.F.j.F.N.",
"F.k.N.S.k.F.N.N.F.j.g   8   5   :.K.K.K.K.K.K.K.K.K.m.H R H P H H x.K.K.K.K.K.K.K.K.K.&.  # X <   d k.N.V.k.B.N.N.V.N.N.",
"B.N.N.V.N.V.h.z &.g 8   # b I C 4.K.K.K.K.K.K.s.6.w.+.H L H J H H O.q.5.l.K.K.K.K.J.K.3.C S B X . w @.l &.h.S.N.N.B.N.N.",
"j.F.N.k.F.k.g.      O 6 $ Z ! H w.K.K.K.K.K.K.5.H H H L H H H H J H H G 7.K.K.K.K.K.K.8.H K S $ 1         g.V.k.F.j.F.N.",
"K.j.N.F.j.K.2.  s *       C ^ G y.K.K.K.K.K.K.q.H ' R H H H H H H U [ G y.K.K.K.K.K.K.9.G P C       q 6 6 >.H.B.j.H.k.B.",
"j.F.N.k.F.k.g.    s &.:.&.) H H +.c.b.v.v.x.b.O.H J H H H H H H H H P H +.c.v.z.c.z.c.o.H H _ %.=.&.q     h.V.k.F.j.F.N.",
"S.k.B.V.k.B.t.    k F.K.K.w.H ' G G H G G H H H ! Y R R R R R R R R R ! H G H G G H G H ^ H w.K.K.H.d     <.F.N.N.V.N.N.",
"B.N.B.V.B.H.g.    l F.K.K.6.H H H P P L P P U H H H H H H H H H H H H H H U P P P P U H H H 6.K.K.F.d     2.H.V.N.N.N.N.",
"k.V.N.j.B.h.1.o   k F.K.H.q.E X.' J K L K K H ' ..} } } ....| | ..| }  .' H J K K L H ' ..Q y.K.K.F.d   o 2.j.h.F.k.F.N.",
"H.k.V.<.  j s q   l F.K.K.D.C.F.i.G H K H U G s.G.Z.S.S.S.S.S.S.S.S.Z.G.i.H H P H U G f.D.Z.S.K.K.F.d   7 7 g   =.H.k.V.",
"h.F.B.l       7   j F.K.J.K.K.K.c.H H P P ! G b.K.K.K.K.K.K.K.K.K.K.K.K.x.H H Y H R G m.K.K.K.K.K.F.s   7       z k.F.N.",
"H.k.V.;.  s       h F.K.K.K.J.K.l.H H K G H G l.K.J.K.J.K.K.K.J.K.K.J.K.s.G G H H ! G v.K.K.K.K.K.F.6       a   =.F.k.N.",
"N.V.V.$.    z k.j.k.K.K.K.K.K.K.l.H H ! s.v.l.S.K.K.K.K.K.K.K.K.K.K.K.K.A.x.m.s.Q J H m.K.K.K.K.K.H.j.j.j.@.    $.V.B.N.",
"k.V.V.#.    =.K.K.K.K.K.K.K.J.K.l.G H ' H.K.K.K.K.K.K.K.K.K.K.K.K.K.K.K.K.K.K.G.` H H m.K.K.K.K.K.K.K.K.K.>.    $.N.F.N.",
"H.k.V.>.    &.K.K.K.K.K.K.K.K.K.x.H H ' G.K.K.K.K.K.K.K.K.K.K.K.K.K.K.K.K.K.K.S.' H G v.K.K.K.K.K.K.K.K.K.>.    *.H.j.N.",
"h.H.V.z     &.K.K.K.K.K.K.K.K.K.x.H H ' D.K.K.K.K.K.K.K.K.K.K.K.K.K.K.K.K.J.K.D.] H G m.K.K.K.K.K.K.K.K.K.=.    #.j.H.N.",
"H.k.V.:.    &.K.K.K.K.K.K.K.J.K.l.H H ' G.K.K.K.K.K.K.K.K.K.K.K.K.K.K.K.K.K.K.S.' H G n.K.K.K.K.K.K.K.K.K.>.    *.F.k.N.",
"N.V.V.$.    &.K.K.K.K.K.K.K.K.K.x.H H ' D.K.K.K.K.K.K.K.K.K.K.K.K.K.K.K.K.K.K.S.] H G m.K.K.K.K.K.K.K.K.K.>.    $.N.V.N.",
"k.V.V.$.    &.K.K.K.K.K.K.G.S.K.a.H H ' G.K.K.K.K.K.K.K.K.K.K.K.K.K.K.K.K.K.K.D.] H G x.K.G.H.K.K.K.K.K.K.>.    $.N.V.N.",
"H.k.N.>.    &.K.K.K.K.K.K.q.G [ T P H ~ G.K.K.K.K.K.K.K.K.K.K.K.K.K.K.K.K.K.K.S.' H J ' | R y.K.K.K.K.K.K.>.    =.H.j.B.",
"h.F.F.l     &.K.J.K.K.K.K.9.H H H P H ^ D.K.K.K.K.K.K.K.K.K.K.K.K.K.K.K.K.J.K.S.] H P H H H 7.K.J.K.K.K.K.;.    @.j.H.N.",
"H.k.V.>.    *.K.K.K.K.K.K.9.G Y H P H ~ H.K.K.K.K.K.K.K.K.K.K.K.K.K.K.K.K.K.K.G.] H P H U H w.K.K.K.K.K.K.,.    *.J.k.V.",
"N.N.B.$.  # / y.q.e.e.w.q.{ H K H K H U q.y.q.C.K.K.K.K.K.K.K.K.K.K.K.K.M.0.y.0.Y H J H J H X.i.u.p.p.d.p.(     $.N.V.N.",
"j.F.V.#.  3 v H G H H H H H J H H H H H G H G m.K.K.K.K.K.K.K.K.K.K.J.K.l.G H G H J H H H J H H H H H H G v 3   $.N.V.N.",
"K.k.N.>.  4 c Y U U U U U K H H H H H H P ! H m.K.K.K.K.K.K.K.K.K.K.K.K.v.H J R H H H H H H K U U U Y Y U M 3   *.F.k.V.",
"h.F.V.l   2 x H H H H H H F A A A A A A A D Z l.V.B.V.N.N.V.N.V.N.B.N.V.r.A F D A A A A F A F H H H H H H m $   @.k.H.N.",
"H.k.V.>.  4 x H H H H H H v X   X $ $ $ $ $ $                             $ $ $ $ $ $ X     m H H H H H H v 3   *.F.k.N.",
"N.V.V.$.  3 v J H H H H H b   > .               % +                 % *                 -   m H H H H H H m 2   $.N.V.N.",
"k.B.V.#.  3 x G G G G G G v   O = 8 8 8 7 8 8 = o o < e q q q q q < o o = 8 8 8 8 8 q & O   m H G H G H G n $   $.N.V.N.",
"H.k.V.>.  e : y y y u u u , e   &.N.N.N.N.N.V.$.    @.B.N.N.N.N.N.$.    &.B.N.N.N.N.V.@.  $ t p i p i p i t 9   =.F.k.N.",
"h.F.F.l   6                 w   >.K.K.K.K.K.K.>.    &.K.K.K.K.K.K.>.    >.K.K.K.K.K.K.*.  +                 &   #.k.H.N.",
"H.k.V.=.      - - - - - >       =.K.K.H.K.H.K.=.    &.K.H.K.H.K.K.=.    >.K.K.H.H.H.K.$.      > : : : > :       $.F.k.V.",
"k.B.V.2.1.=.$.    X X     &.g.<.j.K.K.K.K.K.K.=.    &.K.K.K.K.K.K.;.    >.K.K.K.K.K.K.j.1.2.=.  *   X     =.<.&.j.N.V.N.",
"N.V.V.N.F.F.h.  w 6 =     j.K.K.K.K.K.K.K.K.K.>.    =.K.K.K.K.K.K.>.    >.K.K.K.K.K.K.K.K.K.k.  6   q o & g.J.V.B.N.V.N.",
"F.k.N.F.k.F.2.      o %   h.K.K.K.K.K.K.K.K.K.$.    @.K.K.K.K.K.K.&.    =.K.K.K.K.K.K.K.J.K.h.  7         ,.F.N.k.F.k.N.",
"h.F.N.k.H.k.h.l z l q     h.K.K.K.K.K.K.K.K.K.2.l @.2.K.K.K.K.K.K.2.z z g.K.K.K.K.K.K.K.K.K.j.  < = z z z j.V.k.F.j.F.N.",
"H.k.N.F.j.H.k.N.F.g.g     h.K.H.K.K.K.K.K.K.K.K.K.K.H.K.K.K.K.K.K.K.K.J.K.K.K.K.K.K.K.K.K.K.h.    f k.j.F.k.V.V.k.F.k.V.",
"k.F.N.N.F.k.F.N.V.N.g     j.K.K.K.K.K.K.K.K.K.K.K.K.K.K.K.K.K.K.K.K.K.K.K.K.K.K.K.K.K.K.K.K.j.    w k.H.k.F.N.N.F.k.B.N.",
"N.N.N.N.N.N.N.N.V.k.g     h.K.H.K.K.K.K.K.K.K.K.K.K.K.K.K.K.K.K.K.K.K.K.K.K.K.K.K.K.K.K.H.K.h.    s j.B.N.N.N.N.N.N.N.N.",
"F.k.N.S.k.F.k.N.F.h.f   * g @.g 1.K.K.K.K.K.K.K.K.K.K.K.K.K.K.K.K.K.K.K.K.K.K.K.K.K.K.<.j z h     d k.N.F.k.V.V.k.F.k.N.",
"h.F.B.k.H.j.F.N.N.V.g   s       =.K.K.H.K.K.H.K.K.H.K.H.K.H.K.H.K.H.K.H.K.K.H.K.K.H.K.$.      q = s k.H.j.F.N.k.H.j.F.N.",
"K.j.N.F.j.H.k.N.F.g.r       d   <.K.K.K.K.K.K.K.K.K.K.K.K.K.K.K.K.K.K.K.K.K.K.K.K.K.K.=.  q       % k.k.F.k.V.V.j.H.k.N.",
"j.F.V.k.F.j.V.N.N.V.>.2.1.s     j 1.1.1.1.<.1.1.<.1.1.1.1.1.1.1.1.<.1.1.<.1.1.1.1.<.1.j     l *.2.1.k.F.k.V.N.N.F.k.F.N.",
"V.N.N.V.N.N.B.N.V.V.V.V.F.&.  e                                                         q   *.F.N.V.V.N.V.N.N.N.N.V.N.V.",
"F.k.N.V.k.F.N.N.V.k.V.N.V.&.                                                                $.H.k.N.V.k.F.k.B.V.k.F.k.N.",
"h.H.N.k.H.j.F.N.k.H.j.F.V.$.g j j j j j j j j j j j j j j j j j j j j j j j j j j j j j j g <.k.F.N.k.J.j.F.N.N.F.j.F.N.",
"K.j.N.F.h.K.j.V.F.j.H.j.V.V.k.H.j.V.N.k.H.h.F.B.j.K.h.F.N.k.H.j.F.k.N.F.j.F.k.N.F.h.H.j.N.F.h.J.j.V.F.j.H.j.V.V.j.H.j.B.",
"j.F.B.k.F.k.V.N.k.F.k.F.N.N.F.k.F.N.N.F.k.F.k.N.S.k.F.k.V.V.k.F.k.V.V.k.F.k.V.V.N.F.k.F.N.k.F.j.V.V.k.F.k.F.N.N.F.k.F.N.",
"N.V.N.N.V.N.N.N.N.N.N.N.N.N.N.N.V.N.N.N.N.V.N.N.N.N.V.N.N.N.N.B.N.V.N.N.V.N.V.N.N.N.N.N.N.N.B.N.V.N.N.N.N.N.N.N.N.N.N.N."
};
