/* XPM */
static char *result[] = {
/* columns rows colors chars-per-pixel */
"64 64 143 2 ",
"   c #010101",
".  c #0A0000",
"X  c #000708",
"o  c #0A070A",
"O  c #020A0B",
"+  c #0B0B0B",
"@  c #120000",
"#  c #1B0000",
"$  c #001C1C",
"%  c #131313",
"&  c #1C1B1B",
"*  c #2B0607",
"=  c #320202",
"-  c #3A0304",
";  c #251B1B",
":  c #2A1B1B",
">  c #371F1F",
",  c #242424",
"<  c #2A2A2A",
"1  c #332020",
"2  c #323232",
"3  c #3C3C3C",
"4  c #680606",
"5  c #720304",
"6  c #7D0303",
"7  c #750508",
"8  c #7D2D2B",
"9  c #7F393B",
"0  c #444444",
"q  c #494949",
"w  c #555555",
"e  c #5A5A5A",
"r  c gray38",
"t  c #6C6C6C",
"y  c #757575",
"u  c #777D7D",
"i  c #7E7E7E",
"p  c #800203",
"a  c #8B0407",
"s  c #800708",
"d  c #80090B",
"f  c #A20506",
"g  c #AB0507",
"h  c #BC0607",
"j  c #BD0608",
"k  c #C20608",
"l  c #CA070A",
"z  c #D30000",
"x  c #DA0202",
"c  c #DD0B0C",
"v  c #DE1D1D",
"b  c #E30304",
"n  c #EB0304",
"m  c #E20508",
"M  c #F50000",
"N  c #FD0000",
"B  c #FE0B0B",
"V  c #F6100D",
"C  c #E41D1D",
"Z  c #FD1414",
"A  c #FF1C1C",
"S  c #FE201F",
"D  c #DF3E3E",
"F  c #E52122",
"G  c #EE2121",
"H  c #F02121",
"J  c #FE2222",
"K  c #FF2C2C",
"L  c #F7302C",
"P  c #F8302D",
"I  c #E03436",
"U  c #EF3A3A",
"Y  c #F83C3E",
"T  c #F8403D",
"R  c #807F7F",
"E  c #F64644",
"W  c #F94242",
"Q  c #F74846",
"!  c #F44D4C",
"~  c #EF5357",
"^  c #F45251",
"/  c #F75856",
"(  c #F55E5C",
")  c #F6615E",
"_  c #DE7B7C",
"`  c #EF6162",
"'  c #F56362",
"]  c #F06A66",
"[  c #F46C6C",
"{  c #F86D6D",
"}  c #EC7B79",
"|  c #F37473",
" . c #F67D7C",
".. c #F97A7A",
"X. c #F3807E",
"o. c #768080",
"O. c #798585",
"+. c #838282",
"@. c #8C8C8D",
"#. c #90908F",
"$. c #939393",
"%. c #9E9E9E",
"&. c gray65",
"*. c #ABABAB",
"=. c #B2B2B2",
"-. c #BEBEBE",
";. c #F18280",
":. c #F08A89",
">. c #E79F9E",
",. c #E99F9E",
"<. c #F19D9D",
"1. c #F4A7A6",
"2. c #F4A8A5",
"3. c #F5ABA9",
"4. c #F3B0AE",
"5. c #E1B7B7",
"6. c #C4C4C4",
"7. c #C9C9C9",
"8. c LightGray",
"9. c #DBDBDB",
"0. c #E3C5C4",
"q. c #EFC3C2",
"w. c #F3C4C4",
"e. c #F4C9C7",
"r. c #F5CCCB",
"t. c #F5D4D3",
"y. c #F8D4D3",
"u. c #F5D8D7",
"i. c #F6DBDA",
"p. c #F9DCDC",
"a. c gray89",
"s. c #EBEBEB",
"d. c #F6E4E3",
"f. c #F4EDEC",
"g. c #F8EDED",
"h. c #ECF2F2",
"j. c #F2F3F3",
"k. c #FAF4F3",
"l. c #F7F9F7",
"z. c #FBF8F7",
"x. c #F2F8F8",
"c. c #FFFEFE",
"v. c None",
/* pixels */
"v.v.v.v.v.v.v.v.v.v.v.v.v.v.v.v.v.v.v.v.v.v.v.v.v.v.v.v.v.v.v.v.v.v.v.v.v.v.v.v.v.v.v.v.v.v.v.v.v.v.v.v.v.v.v.v.v.v.v.v.v.v.v.v.",
"v.v.v.v.v.v.v.v.v.v.v.v.v.v.v.v.v.v.v.v.v.v.v.v.v.v.v.v.v.v.v.v.v.v.v.v.v.v.v.v.v.v.v.v.v.v.v.v.v.v.v.v.v.v.v.v.v.v.v.v.v.v.v.v.",
"v.v.v.v.v.v.v.v.v.v.v.v.v.v.v.v.v.v.v.v.v.v.v.v.v.v.v.v.v.v.v.v.v.v.v.v.v.v.v.v.v.v.v.v.v.v.v.v.v.v.v.v.v.v.v.v.v.v.v.v.v.v.v.v.",
"v.v.v.v.v.v.v.v.v.v.v.v.v.v.v.v.v.v.v.v.v.v., < , < < , , < < < < < < , < , < , < , v.v.v.v.v.v.v.v.v.v.v.v.v.v.v.v.v.v.v.v.v.v.",
"v.v.v.v.v.v.v.v.v.v.v.v.v.v.v.v.v.v.v.v.v.,       o o o       . . . .   o o o       & v.v.v.v.v.v.v.v.v.v.v.v.v.v.v.v.v.v.v.v.v.",
"v.v.v.v.v.v.v.v.v.v.v.v.v.v.v.v.v.v.v.v.v.,                                         , v.v.v.v.v.v.v.v.v.v.v.v.v.v.v.v.v.v.v.v.v.",
"v.v.v.v.v.v.v.v.v.v.v.v.v.v.v.v.v.v.v.v.v.<     % 2 2 2 1 = * - - - - > 2 2 < %     < v.v.v.v.v.v.v.v.v.v.v.v.v.v.v.v.v.v.v.v.v.",
"v.v.v.v.v.v.v.v.v.v.v.v.v.v., + % + % % % o %   y j.f.x.>.n C M M G M >.h.j.j.e   % + % + % + % + , v.v.v.v.v.v.v.v.v.v.v.v.v.v.",
"v.v.v.v.v.v.v.v.v.v.v.v.v.v.&     o , , & , 2   R c.c.c.3.N J N N J N 3.c.c.c.t   < , , , , o     % v.v.v.v.v.v.v.v.v.v.v.v.v.v.",
"v.v.v.v.v.v.v.v.v.v.v.v.v.v.%   +               t c.c.c.1.N J N N J N 3.c.c.c.0               o   & v.v.v.v.v.v.v.v.v.v.v.v.v.v.",
"v.v.v.v.v.v.v.v.v.v.v.v.v.v.% %   w =.=.=.=.=.*.6.c.c.c.1.N J N N J N 2.c.c.c.-.=.=.=.=.=.=.w   + & v.v.v.v.v.v.v.v.v.v.v.v.v.v.",
"v.v.v.v.v.v.v.v.v.v.v.o       &   +.c.c.c.c.c.c.c.c.c.c.1.N J N N J N 1.c.c.c.c.c.c.c.c.c.c.+.  &   o   + v.v.v.v.v.v.v.v.v.v.v.",
"v.v.v.v.v.v.v.v.v.v.v.      @ ;   i c.c.c.c.z.c.c.c.c.c.1.N J N N J N 1.c.c.c.c.c.c.c.c.c.c.i   ; .       v.v.v.v.v.v.v.v.v.v.v.",
"v.v.v.v.v.v.v.v.v.v.v.o       $   u c.c.c.c.c.c.c.c.z.c.1.N J N N J N 2.c.c.c.c.c.c.c.c.c.c.u   $       o v.v.v.v.v.v.v.v.v.v.v.",
"v.v.v.v.v.v.v., % & %   @   j v x _ c.c.c.c.c.c.g.[ { | E N B N N B N W [ { ] g.c.c.c.c.c.c._ x C h   #   % & + , v.v.v.v.v.v.v.",
"v.v.v.v.v.v.v.&     + & ; $ c A N ..c.c.c.c.c.c.d.M N N N B N N N N B N N N M d.c.z.c.c.z.c...N A c $ : & o     & v.v.v.v.v.v.v.",
"v.v.v.v.v.v.v.&   +         z A N  .c.c.c.c.c.c.f.M A A B N N N N N N B A A M f.c.c.c.c.c.c. .N A z         o   & v.v.v.v.v.v.v.",
"v.v.v.v.v.v.v.&     w +.i o.D N N ] u.i.i.i.u.i.q.M B N N N N N N N N N N B M e.i.u.i.u.u.u.' N N D O.+.@.q     & v.v.v.v.v.v.v.",
"v.v.v.v.v.v.v.& &   *.c.c.c.[ N A N M M N M N N N N N N N N N N N N N N N N N M M N M N M N N A N ..c.c.c.$.  & & v.v.v.v.v.v.v.",
"v.v.v.v.v.v.v.& ,   *.c.c.c.| N K A A A A A A A A A J J J S J S S J S J S J A A A A A A A A A K N  .c.c.c.$.  & & v.v.v.v.v.v.v.",
"v.v.v.v.v.v.v., &   *.c.c.c.~ N N N B N N N N B N N M N N N N N N N N N N N N N B N N N N B N N N ] l.c.c.$.  & & v.v.v.v.v.v.v.",
"v.v.v.v., , < + ,   *.c.l.c.t.w.t.3.N Z N N B N ! e.r.r.r.r.r.r.r.r.r.r.r.r.e.Y N B N N Z N 3.t.e.u.c.c.c.$.  & % < < , v.v.v.v.",
"v.v.v.v.      % <   *.c.c.c.c.c.c.d.N A N B A N ` c.c.c.c.c.c.c.c.c.c.c.c.c.c./ N A B N A M d.c.c.c.c.c.c.$.  < %       v.v.v.v.",
"v.v.v.v.            &.c.c.c.c.c.c.u.N Z B N N N ~ k.c.c.c.c.c.c.c.c.c.c.c.c.k.Q N N N B A M p.c.c.c.c.c.c.@.            v.v.v.v.",
"v.v.v.v.      t i r -.c.c.c.c.c.c.i.N A N E ( ! } c.c.c.c.c.c.c.c.c.c.c.c.c.l.| ^ ' E N A M p.c.c.c.c.c.c.&.w t e       v.v.v.v.",
"v.v.v.v.o     s.c.c.c.c.c.c.c.c.c.i.N K N e.c.l.l.c.c.c.c.c.c.c.c.c.c.c.c.c.c.z.k.c.e.M K M p.c.c.c.c.c.c.c.c.c.s.    o v.v.v.v.",
"v.v.v.v.      s.c.c.c.c.c.c.c.c.c.i.M K N r.c.c.c.c.c.c.c.c.c.c.c.c.c.c.c.c.c.c.c.c.r.N K M p.c.c.c.c.c.c.c.c.c.s.    o v.v.v.v.",
"v.v.v.v.o     s.c.c.c.c.c.c.c.c.c.i.N K N r.c.z.c.c.c.c.c.c.c.c.c.c.c.c.c.c.c.c.c.c.r.M K M p.c.c.c.c.c.c.c.c.c.s.    o v.v.v.v.",
"v.v.v.v.o     s.c.c.c.c.c.c.c.c.c.i.M K N r.c.c.c.c.c.c.c.c.c.c.c.c.c.c.c.c.c.c.c.c.e.N K M p.c.z.c.c.c.c.c.c.c.s.    o v.v.v.v.",
"v.v.v.v.o     s.c.c.c.c.c.c.c.c.c.i.N K N r.c.c.c.c.c.c.c.c.c.c.c.c.c.c.c.c.c.c.c.c.r.M K M p.c.c.c.c.c.c.c.c.c.s.  X o v.v.v.v.",
"v.v.v.v.      s.c.c.c.c.c.c.c.c.c.i.N K N r.c.c.c.c.c.c.c.c.c.c.c.c.c.c.c.c.c.c.c.c.r.N K M p.c.c.c.c.c.c.c.c.c.s.  X o v.v.v.v.",
"v.v.v.v.o     s.c.c.c.c.c.c.k.k.z.r.N K N r.c.c.c.c.c.c.c.c.c.c.c.c.c.c.c.c.c.c.c.c.r.N K M t.c.k.k.c.c.c.c.c.c.s.    o v.v.v.v.",
"v.v.v.v.o     s.c.c.c.c.c.c.;.V W P N J N r.c.c.c.c.c.c.c.c.c.c.c.c.c.c.c.c.c.c.c.c.e.N J M T ^ K :.c.c.c.c.c.c.s.    o v.v.v.v.",
"v.v.v.v.      s.c.z.c.c.c.c.| N N N N J N e.c.z.c.c.c.c.c.c.c.c.c.c.c.c.c.c.c.c.c.c.e.N J N N N N | c.c.c.c.z.c.s.    o v.v.v.v.",
"v.v.v.v.o     h.c.c.c.c.c.c.| N S B N J N t.c.c.c.c.c.c.c.c.c.c.c.c.c.c.c.c.c.c.c.c.t.M J N B J N  .c.c.c.c.c.c.h.    o v.v.v.v.",
"v.v.v.v.o   o 5.e.e.w.w.w.q.! N B N N Z N ,.r.e.t.c.c.c.c.c.c.c.c.c.c.c.c.c.c.r.w.r.,.N A N N Z N ' r.t.y.u.u.p.0.    o v.v.v.v.",
"v.v.v.v.      b N N N M N N N B N N N N Z N M N ^ c.c.c.c.c.c.c.c.c.c.c.c.c.l.U N N M B N N N N B N N N M N M N b X . . v.v.v.v.",
"v.v.v.v..     F J J J J J J B N N N N N N A K N [ l.c.c.c.c.c.c.c.c.c.c.c.c.l.' N K A N N N N N N B J J J A A A C     . v.v.v.v.",
"v.v.v.v.      m N N N N N N B N N N N B N N Z N { c.c.c.c.c.c.c.c.c.c.c.c.c.c.( N Z N N N B B N N N N N N N N N m   .   v.v.v.v.",
"v.v.v.v..     m N N N N N N f 5 6 6 6 6 p 6 d 6 9 @.@.$.$.@.#.@.@.@.@.@.+.@.+.8 p s p p p p p p 5 g N N N N N N m   .   v.v.v.v.",
"v.v.v.v.  .   m N N N N N N 5       $ $ $ $ $ $                               O $ $ $ $ $ $       6 N N N N N N m     . v.v.v.v.",
"v.v.v.v.      n N N N N N N s   *                 & & ,                 , & &                 *   a N N N N N N m X . . v.v.v.v.",
"v.v.v.v.      k x x x x x x 4 O   3 +.+.+.i i +.y   o   r +.i o.i i +.e   +   y +.i i i i +.3   X 7 m m b b m b l o     v.v.v.v.",
"v.v.v.v.        X             &   o.c.c.c.c.c.c.s.  ,   -.c.c.c.c.c.c.6.  ,   s.c.c.c.c.c.c.i   &   X                   v.v.v.v.",
"v.v.v.v.      # # # # # # # & <   +.c.c.c.c.c.c.s.  ,   -.c.l.c.c.c.c.-.  ,   s.c.c.c.c.c.c.i   2 & . @ @ @ @ @ .       v.v.v.v.",
"v.v.v.v.o o               o       t c.c.c.c.c.c.s.  ,   -.c.c.c.c.c.c.-.  ,   s.c.c.c.c.c.c.t       +               o o v.v.v.v.",
"v.v.v.v.v.v.v.&         %   =.8.7.9.c.c.c.c.c.c.s.  ,   6.c.c.c.c.l.c.-.  ,   s.c.c.c.c.c.c.9.7.8.=.  %         & v.v.v.v.v.v.v.",
"v.v.v.v.v.v.v.&         &   a.c.c.c.c.c.c.c.c.c.s.  <   -.c.c.c.c.c.c.6.  < o s.c.c.c.c.c.c.c.c.c.a.  &         , v.v.v.v.v.v.v.",
"v.v.v.v.v.v.v.%         &   9.c.c.c.c.c.c.c.c.c.s.      -.c.c.c.c.c.c.-.      s.c.c.c.c.c.c.c.l.c.9.  &         & v.v.v.v.v.v.v.",
"v.v.v.v.v.v.v.2 & & %   &   9.c.c.c.c.c.c.c.c.c.s.w r 2 6.c.c.c.c.c.c.6.2 r e s.c.c.c.c.c.c.c.c.c.9.  &   & , % < v.v.v.v.v.v.v.",
"v.v.v.v.v.v.v.v.v.v.v.o &   9.c.c.c.c.c.c.c.c.c.c.l.l.c.c.c.c.c.c.c.c.c.c.l.l.c.c.c.c.c.c.c.c.c.c.9.  & o v.v.v.v.v.v.v.v.v.v.v.",
"v.v.v.v.v.v.v.v.v.v.v.o %   9.c.l.c.c.c.c.c.c.c.c.c.c.c.c.c.c.c.c.c.c.c.c.c.c.c.c.c.c.c.c.c.c.l.c.9.  % o v.v.v.v.v.v.v.v.v.v.v.",
"v.v.v.v.v.v.v.v.v.v.v.O &   a.c.c.c.c.c.c.c.c.c.c.c.c.c.c.c.c.c.c.c.c.c.c.c.c.c.c.c.c.c.c.c.c.c.c.a.  & o v.v.v.v.v.v.v.v.v.v.v.",
"v.v.v.v.v.v.v.v.v.v.v.o +   %.-.=.7.c.c.c.c.c.c.c.c.c.c.c.c.c.c.c.c.c.c.c.c.c.c.c.c.c.c.c.c.7.=.-.%.  + o v.v.v.v.v.v.v.v.v.v.v.",
"v.v.v.v.v.v.v.v.v.v.v.o   o       t c.c.c.c.c.c.c.c.c.c.c.c.c.c.c.c.c.c.c.c.c.c.c.c.c.c.c.c.t       o   o v.v.v.v.v.v.v.v.v.v.v.",
"v.v.v.v.v.v.v.v.v.v.v.      & 2   +.c.c.c.c.c.c.c.c.c.c.c.c.c.c.c.c.c.c.c.c.c.c.c.c.c.c.c.c.+.  2 &       v.v.v.v.v.v.v.v.v.v.v.",
"v.v.v.v.v.v.v.v.v.v.v.% % %   &   u c.l.z.c.l.c.l.c.c.z.c.c.z.c.c.v.l.c.l.l.c.l.l.l.l.c.l.v.3   o o % % % v.v.v.v.v.v.v.v.v.v.v.",
"v.v.v.v.v.v.v.v.v.v.v.v.v.v.&     , e e w e e e w w w %             q e e e e e e e e e       o   , v.v.v.v.v.v.v.v.v.v.v.v.v.v.",
"v.v.v.v.v.v.v.v.v.v.v.v.v.v.&   o                             + , ,                     % ,       , v.v.v.v.v.v.v.v.v.v.v.v.v.v.",
"v.v.v.v.v.v.v.v.v.v.v.v.v.v.&       % % % + % % % % +   o   o       o % % + % % + % % +           , v.v.v.v.v.v.v.v.v.v.v.v.v.v.",
"v.v.v.v.v.v.v.v.v.v.v.v.v.v.v.% < % & , % , & & < % , , % < & & < + , , % < % , < % , , % < % & , v.v.v.v.v.v.v.v.v.v.v.v.v.v.v.",
"v.v.v.v.v.v.v.v.v.v.v.v.v.v.v.v.v.v.v.v.v.v.v.v.v.v.v.v.v.v.v.v.v.v.v.v.v.v.v.v.v.v.v.v.v.v.v.v.v.v.v.v.v.v.v.v.v.v.v.v.v.v.v.v.",
"v.v.v.v.v.v.v.v.v.v.v.v.v.v.v.v.v.v.v.v.v.v.v.v.v.v.v.v.v.v.v.v.v.v.v.v.v.v.v.v.v.v.v.v.v.v.v.v.v.v.v.v.v.v.v.v.v.v.v.v.v.v.v.v.",
"v.v.v.v.v.v.v.v.v.v.v.v.v.v.v.v.v.v.v.v.v.v.v.v.v.v.v.v.v.v.v.v.v.v.v.v.v.v.v.v.v.v.v.v.v.v.v.v.v.v.v.v.v.v.v.v.v.v.v.v.v.v.v.v."
};
