/* XPM */
static char *result[] = {
/* columns rows colors chars-per-pixel */
"64 64 228 2 ",
"   c black",
".  c #000001",
"X  c #000002",
"o  c #000003",
"O  c #030003",
"+  c #000500",
"@  c #010700",
"#  c #030502",
"$  c #000005",
"%  c #010005",
"&  c #040005",
"*  c #060506",
"=  c #010B01",
"-  c #010C00",
";  c #010D00",
":  c #010C01",
">  c #010E00",
",  c #010F00",
"<  c #020F00",
"1  c #020F01",
"2  c #060806",
"3  c #050C05",
"4  c #060C06",
"5  c #010B09",
"6  c #051103",
"7  c #010C11",
"8  c #120E12",
"9  c #120E13",
"0  c #111011",
"q  c #121012",
"w  c #131113",
"e  c gray7",
"r  c #121512",
"t  c #121014",
"y  c #141014",
"u  c #151615",
"i  c #161616",
"p  c #141D13",
"a  c #141F13",
"s  c #151F14",
"d  c #171E16",
"f  c #181618",
"g  c #052200",
"h  c #062500",
"j  c #0D2607",
"k  c #082D00",
"l  c #0D2807",
"z  c #0F270C",
"x  c #0F270D",
"c  c #0D2808",
"v  c #0F2808",
"b  c #0F280A",
"n  c #0F280C",
"m  c #11280A",
"M  c #11280C",
"N  c #12290D",
"B  c #12290F",
"V  c #123A05",
"C  c #133A05",
"Z  c #123B05",
"A  c #133B05",
"S  c #123A07",
"D  c #133A07",
"F  c #123B07",
"G  c #133B07",
"H  c #143B07",
"J  c #123C04",
"K  c #123C05",
"L  c #133C05",
"P  c #143B08",
"I  c #162015",
"U  c #172015",
"Y  c #162115",
"T  c #172115",
"R  c #182016",
"E  c #182116",
"W  c #132E10",
"Q  c #182118",
"!  c #192118",
"~  c #173D12",
"^  c #104000",
"/  c #144A00",
"(  c #175100",
")  c #185400",
"_  c #195A00",
"`  c #1A5B00",
"'  c #1B5B00",
"]  c #1A5C00",
"[  c #1B5D00",
"{  c #1C5F00",
"}  c #1D4415",
"|  c #1D4515",
" . c #1E4415",
".. c #1E4515",
"X. c #1E4615",
"o. c #1E4715",
"O. c #1E4517",
"+. c #1F4517",
"@. c #1E4616",
"#. c #1F4716",
"$. c #1E4617",
"%. c #1E4717",
"&. c #1E4718",
"*. c #1B6000",
"=. c #1C6000",
"-. c #1D6000",
";. c #1E6500",
":. c #206900",
">. c #226E00",
",. c #257600",
"<. c #247700",
"1. c #257700",
"2. c #257800",
"3. c #267B00",
"4. c #288000",
"5. c #2A8301",
"6. c #2B8601",
"7. c #2B8900",
"8. c #2C8900",
"9. c #2C8A00",
"0. c #2D8A00",
"q. c #2C8B00",
"w. c #2D8B00",
"e. c #2C8D00",
"r. c #2D8D00",
"t. c #2E8E00",
"y. c #2E8F00",
"u. c #2F9100",
"i. c #2F9001",
"p. c #2F9101",
"a. c #2F9200",
"s. c #2F9300",
"d. c #2F9201",
"f. c #2F9301",
"g. c #2F9005",
"h. c #309200",
"j. c #309300",
"k. c #309301",
"l. c #319301",
"z. c #309400",
"x. c #329800",
"c. c #329801",
"v. c #3DB300",
"b. c #3DB900",
"n. c #3EBA00",
"m. c #3FBA00",
"M. c #3FBB00",
"N. c #3FBD00",
"B. c #40BE00",
"V. c #4AD500",
"C. c #4ED601",
"Z. c #4DDC00",
"A. c #4EDD00",
"S. c #4FDD00",
"D. c #50DE00",
"F. c #4FE000",
"G. c #50E000",
"H. c #51E600",
"J. c #52E600",
"K. c #52E700",
"L. c #52E800",
"P. c #54E800",
"I. c #52EC00",
"U. c #53EE00",
"Y. c #54EF00",
"T. c #54EF01",
"R. c #54F000",
"E. c #56F000",
"W. c #56F300",
"Q. c #57F300",
"!. c #55F400",
"~. c #55F500",
"^. c #55F501",
"/. c #56F500",
"(. c #56F501",
"). c #55F600",
"_. c #56F700",
"`. c #57F700",
"'. c #56F601",
"]. c #57F601",
"[. c #57F703",
"{. c #58F600",
"}. c #58F700",
"|. c #59F700",
" X c #5BF600",
".X c #5BF700",
"XX c #57F800",
"oX c #56F900",
"OX c #57F900",
"+X c #57FB00",
"@X c #57FC00",
"#X c #57FE00",
"$X c #58F800",
"%X c #59F800",
"&X c #5AF800",
"*X c #58FB00",
"=X c #58FC00",
"-X c #59FC00",
";X c #58FD00",
":X c #59FD00",
">X c #58FE00",
",X c #59FE00",
"<X c #58FF00",
"1X c #59FF00",
"2X c #5AFE00",
"3X c #5AFF00",
"4X c #5BFF00",
"5X c #5CFF00",
"6X c #5DFF00",
"7X c #5CFF01",
"8X c #5DFF01",
"9X c #5EFF00",
"0X c #5EFF01",
"qX c #57F609",
"wX c #59FE09",
"eX c #59FF09",
"rX c #5AFF08",
"tX c #5AFF09",
"yX c #59FE0B",
"uX c #59FF0B",
"iX c #59FE0C",
"pX c #59FF0C",
"aX c #5AFF0C",
"sX c #5AFE0F",
"dX c #5BFF10",
"fX c #5BFF11",
"gX c #5CFF10",
"hX c None",
/* pixels */
"hXhXhXhXhXhXhXhXhXhXhXhXhXhXhXhXhXhXhXhXhXhXhXhXhXhXhXhXhXhXhXhXhXhXhXhXhXhXhXhXhXhXhXhXhXhXhXhXhXhXhXhXhXhXhXhXhXhXhXhXhXhXhXhX",
"hXhXhXhXhXhXhXhXhXhXhXhXhXhXhXhXhXhXhXhXhXhXhXhXhXhXhXhXhXhXhXhXhXhXhXhXhXhXhXhXhXhXhXhXhXhXhXhXhXhXhXhXhXhXhXhXhXhXhXhXhXhXhXhX",
"hXhXhXhXhXhXhXhXhXhXhXhXhXhXhXhXhXhXhXhXhXhXhXhXhXhXhXhXhXhXhXhXhXhXhXhXhXhXhXhXhXhXhXhXhXhXhXhXhXhXhXhXhXhXhXhXhXhXhXhXhXhXhXhX",
"hXO 6 M B N N m v n z c b b j x l g 3 * hXhXhXhXhXhXhXhXhXhXhXhXhXhXhXhXhXhXhXhXhXhXhXhXhXhXhXhXhXhXhXhXhXhXhXhXhXhXhXhXhXhXhXhX",
"0 = . X o o o X X X X X X X . X .   . # hXhXhXhXhXhXhXhXhXhXhXhXhXhXhXhXhXhXhXhXhXhXhXhXhXhXhXhXhXhXhXhXhXhXhXhXhXhXhXhXhXhXhXhX",
"r . / 9.q.8.q.9.9.9.9.9.9.9.9.7.t.4.k X hXhXhXhXhXhXhXhXhXhXhXhXhXhXhXhXhXhXhXhXhXhXhXhXhXhXhXhXhXhXhXhXhXhXhXhXhXhXhXhXhXhXhXhX",
"p . 6.D.L.H.K.K.K.K.K.K.K.K.J.H.P.Z.) . hXhXhXhXhXhXhXhXhXhXhXhXhXhXhXhXhXhXhXhXhXhXhXhXhXhXhXhXhXhXhXhXhXhXhXhXhXhXhXhXhXhXhXhX",
"a . c. X6X5X5X5X5X5X5X5X5X5X5X4X9XXX{ . hXhXhXhXhXhXhXhXhXhXhXhXhXhXhXhXhXhXhXhXhXhXhXhXhXhXhXhXhXhXhXhXhXhXhXhXhXhXhXhXhXhXhXhX",
"s . p.Q.-X@X>X;X;X;X;X>X;X;X>X+X3XU.` X hXhXhXhXhXhXhXhXhXhXhXhXhXhXhXhXhXhXhXhXhXhXhXhXhXhXhXhXhXhXhXhXhXhXhXhXhXhXhXhXhXhXhXhX",
"T . d.Q.:X;X>X>X>X>X>X,X,X>X,X*X4XY.] X hXhXhXhXhXhXhXhXhXhXhXhXhXhXhXhXhXhXhXhXhXhXhXhXhXhXhXhXhXhXhXhXhXhXhXhXhXhXhXhXhXhXhXhX",
"U . f.Q.:X>X1X,X,X1X1X1X1X,X1X=X4XY.] . hXhXhXhXhXhXhXhXhXhXhXhXhXhXhXhXhXhXhXhXhXhXhXhXhXhXhXhXhXhXhXhXhXhXhXhXhXhXhXhXhXhXhXhX",
"U . f.Q.:X>X1X,X,X,X,X,X,X,X1X=X4XY.'   c G J V D C K K V V S V V D Z F G Z A H A Z G F Z G F Z G F Z G P P G L Z Z Z V D F Z ~ ",
"Y . f.Q.:X>X1X,X,X,X,X1X1X,X1X=X4XY.'   @ > , > > > > > > > > > > > > > > > > > > > > > > > > > > > > > > > > > > > > > > < 1 7 ",
"I . f.Q.:X>X1X,X,X,X,X1X1X,X1X=X4XY.[   :.u.z.a.j.j.j.s.j.j.s.s.s.j.j.h.j.j.j.s.s.s.j.j.h.j.j.h.j.j.j.a.j.j.j.j.j.j.j.j.a.j.x.g.",
"E . f.Q.:X>X1X,X,X,X,X,X,X,X1X=X4XY.=.  b.E.$X_.`.`.`.`.`.`.`.`.`.`.`.`.`.`.`.`.`.`.`.`.`.`.`.`.`.`.`.`.`.`.`.`.`.`.`.`.XX$X.X[.",
"E . f.Q.:X>X1X,X,X,X,X1X,X,X1X=X4XY.-.  N.%X4X1X3X3X1X1X3X1X3X1X1X1X1X1X1X3X3X3X3X1X1X1X1X1X1X1X1X1X1X1X1X1X1X1X1X3X3X3X1X3X8XdX",
"E . f.Q.:X>X1X,X,X,X1X1X,X,X1X=X4XY.-.  m.}.3X;X,X>X>X,X>X,X>X,X,X,X,X,X>X>X>X>X>X>X,X,X,X,X,X,X,X,X>X>X>X,X,X,X,X>X>X>X>X3X7XfX",
"E . f.Q.:X>X1X,X,X,X1X1X,X,X1X=X4XY.-.  m.}.3X>X,X,X,X,X1X1X,X,X1X,X,X,X,X,X,X,X,X,X,X1X,X,X,X,X,X1X1X,X,X1X,X,X,X,X,X1X;X3X7XaX",
"E . f.Q.:X>X1X,X,X,X,X,X,X,X1X=X4XY.-.  M.}.3X>X1X,X,X,X,X,X,X,X,X,X,X,X,X,X,X,X1X,X,X,X,X1X1X,X,X,X,X,X,X1X,X,X,X,X,X,X,X3X5XrX",
"! . f.Q.:X>X1X,X,X,X,X1X1X,X1X=X4XY.-.  M.`.2X;X1X,X,X,X,X,X,X,X,X,X,X,X,X,X,X,X,X,X,X,X,X1X,X,X,X,X,X,X,X,X,X,X,X,X,X,X,X3X5XtX",
"! X f.Q.:X>X1X,X,X,X,X1X,X,X1X=X4XY.-.  M.}.2X;X1X,X,X,X1X,X,X1X,X,X,X,X,X,X,X,X,X,X,X,X,X,X,X1X1X,X1X1X,X,X,X,X,X,X,X1X,X3X7XuX",
"! X f.Q.:X>X1X,X,X,X,X,X,X,X1X=X4XY.-.  M.}.3X>X1X,X,X,X,X,X,X,X,X,X,X,X,X1X,X,X,X,X,X,X,X,X1X,X,X,X,X,X,X,X,X,X,X,X,X,X,X3X7XyX",
"Q . f.Q.:X>X1X,X,X,X,X,X,X,X1X=X4XY.-.  M.}.3X>X1X,X,X,X,X,X,X,X,X,X,X,X,X,X,X,X,X,X,X,X,X,X,X,X,X,X,X,X,X,X,X,X,X,X,X,X,X3X5XwX",
"E . f.Q.:X>X1X,X,X,X,X1X1X,X1X=X4XY.-.  M.}.2X;X1X,X,X,X,X,X,X,X1X,X,X,X,X,X,X,X,X,X,X,X,X,X,X,X,X,X,X1X,X,X,X,X,X,X,X,X,X3X5XtX",
"E . f.Q.:X>X1X,X,X,X,X1X1X,X1X=X4XY.-.  M.}.3X;X,X,X,X,X,X,X,X,X,X1X,X,X,X,X,X,X,X,X,X1X1X,X,X,X,X,X,X,X,X,X,X,X,X,X,X,X,X3X5XtX",
"Q X f.Q.:X>X1X,X,X,X,X,X,X,X1X=X4XY.-.  M.}.2X;X1X,X,X,X,X,X,X,X,X,X,X,X,X,X,X,X,X,X,X,X,X,X,X,X,X,X,X,X,X,X,X,X,X,X,X,X,X3X5XwX",
"E . f.Q.:X>X1X,X,X,X,X1X,X,X1X=X4XY.-.  M.}.3X;X,X,X,X,X,X,X,X,X,X,X,X,X,X,X,X,X,X,X,X,X,X,X,X,X,X,X,X,X,X,X,X,X,X,X,X,X,X3X7XaX",
"E . f.Q.:X;X,X,X,X,X,X,X,X,X1X=X4XY.-.  M.}.3X;X,X,X,X,X,X,X,X,X,X,X,X,X,X,X,X,X,X,X,X,X,X,X,X,X,X,X,X,X,X,X,X,X,X,X,X,X,X3X5XwX",
"E . k.Q.:X;X,X,X,X,X,X,X,X,X1X=X4XY.-.  M.}.2X;X1X,X,X,X,X,X,X,X,X,X,X,X,X,X,X,X,X,X,X,X,X,X,X,X,X,X,X,X,X,X,X,X,X,X,X,X,X3X5XwX",
"E . k.Q.:X>X1X,X,X,X,X,X,X,X1X=X4XY.-.  M.}.2X;X1X,X,X,X,X,X,X,X,X,X,X,X,X,X,X,X,X,X,X,X,X,X,X,X,X,X,X,X,X,X,X,X,X,X,X,X,X3X5XtX",
"E . f.Q.:X>X1X,X,X,X,X,X,X,X1X=X4XY.-.  M.}.2X;X1X,X,X,X,X,X,X,X,X,X,X,X,X,X,X,X,X,X,X,X,X,X,X,X,X,X,X,X,X,X,X,X,X,X,X,X,X3X5XeX",
"E . f.Q.:X>X1X,X,X,X,X,X,X,X1X=X4XY.-.  M.}.3X>X1X,X,X,X,X,X,X,X,X,X,X,X,X,X,X,X,X,X,X,X,X,X,X,X,X,X,X,X,X,X,X,X,X,X,X,X,X3X7XyX",
"E . f.Q.:X>X1X,X,X,X,X,X,X,X1X=X4XY.-.  M.}.3X>X1X,X,X,X,X,X,X,X,X,X,X,X,X,X,X,X,X,X,X,X,X,X,X,X,X,X,X,X,X,X,X,X,X,X,X,X,X3X7XiX",
"E . f.Q.:X>X1X,X,X,X,X,X,X,X1X=X4XY.-.  M.}.2X;X1X,X,X,X,X,X,X,X,X,X,X,X,X,X,X,X,X,X,X,X,X,X,X,X,X,X,X,X,X,X,X,X,X,X,X,X,X3X7XyX",
"E . f.Q.:X>X1X,X,X,X,X,X,X,X1X=X4XY.-.  M.}.2X;X1X,X,X,X,X,X,X,X,X,X,X,X,X,X,X,X,X,X,X,X,X,X,X,X,X,X,X,X,X,X,X,X,X,X,X,X,X3X7XwX",
"E . f.Q.:X>X1X,X,X,X,X,X,X,X1X=X4XY.-.  M.}.2X;X1X,X,X,X,X,X,X,X,X,X,X,X,X,X,X,X,X,X,X,X,X,X,X,X,X,X,X,X,X,X,X,X,X,X,X,X,X3X7XiX",
"E . f.Q.:X>X1X,X,X,X,X,X,X,X1X=X4XY.-.  M.}.2X;X1X,X,X,X,X,X,X,X,X,X,X,X,X,X,X,X,X,X,X,X1X,X,X,X,X,X,X,X,X,X,X,X,X,X,X,X,X3X7XiX",
"E . f.Q.:X>X<X>X,X,X,X,X,X,X1X=X4XY.-.  M.}.3X;X,X,X,X,X1X,X,X,X,X,X,X,X,X,X,X,X,X,X,X,X,X,X,X,X,X,X,X,X,X,X,X,X,X,X,X,X,X3X5XwX",
"E . f.Q.:X>X1X,X,X,X,X1X,X,X1X=X4XY.-.  M.}.2X;X1X,X,X,X,X,X,X,X,X,X,X,X,X,X,X,X,X,X,X,X,X,X,X,X,X,X,X,X,X,X,X,X,X,X,X,X,X3X7XaX",
"E . l.Q.:X>X1X,X,X,X,X1X,X,X1X=X4XY.-.  M.}.2X;X1X,X,X,X,X,X,X,X,X,X,X,X,X,X,X,X,X,X,X1X,X,X,X,X,X,X,X,X,X,X,X,X,X,X,X,X,X3X7XiX",
"E . k.Q.:X>X1X,X,X,X,X,X1X,X1X=X4XY.-.  M.}.3X>X1X,X,X,X,X,X,X,X,X,X,X,X,X,X,X,X,X,X,X,X1X,X1X,X,X,X,X,X,X,X1X,X,X,X,X1X,X3X7XiX",
"E . f.Q.:X>X1X,X,X,X,X,X,X,X1X=X4XY.-.  M.`.3X>X1X,X,X,X,X,X,X,X,X,X,X,X,X,X,X,X,X,X,X,X,X,X,X,X,X,X,X1X,X,X,X,X,X,X,X,X,X3X7XiX",
"E . f.Q.:X>X1X,X,X,X,X1X1X,X1X=X4XY.-.  M.}.3X>X1X,X,X1X,X,X,X,X1X1X,X,X1X,X,X,X,X,X1X,X,X,X,X,X,X,X1X,X,X,X1X1X,X,X1X,X,X3X7XiX",
"E . k.Q.:X>X1X,X,X,X,X1X,X,X1X=X4XY.-.  M.}.3X>X1X,X,X,X,X,X,X1X1X,X,X,X,X,X,X1X1X,X,X,X,X1X1X,X,X,X1X,X,X,X1X1X1X,X1X1X,X3X7XpX",
"E . k.Q.:X>X1X,X,X,X,X,X,X,X1X=X4XY.-.  M.}.3X;X,X,X,X,X,X,X,X,X,X,X,X,X1X,X,X,X,X,X,X,X,X,X,X,X,X,X1X,X,X,X,X,X,X,X,X,X,X3X7XiX",
"E . f.Q.:X>X1X,X,X,X,X,X,X,X1X=X4XY.-.  M.}.3X;X1X1X1X1X1X1X1X,X,X1X,X1X1X1X1X1X,X1X1X,X1X1X1X,X,X1X1X1X,X1X1X,X1X1X1X,X,X3X7XiX",
"E . f.Q.:X>X1X,X,X,X,X,X,X,X1X=X4XY.-.  m.{.3X;X,X,X,X,X,X,X,X,X,X,X,X,X,X,X,X,X,X,X,X,X,X,X,X,X,X,X,X,X,X,X,X,X,X,X,X,X;X3X7XiX",
"E . f.Q.:X#X1X,X,X,X1X,X,X,X1X=X4XY.-.  n.{.3X;X:X-X-X;X:X-X:X=X=X;X=X=X:X-X:X:X;X-X:X;X;X=X:X=X=X;X=X;X;X;X-X:X:X-X;X-X=X,X7XsX",
"E . f.Q.:X>X1X,X,X1X,X1X1X,X1X=X4XY.-.  B.&X4X3X3X3X3X3X3X3X3X3X3X3X3X3X3X3X3X3X3X3X3X3X3X3X3X3X3X3X3X3X3X3X3X3X3X3X3X3X3X4X0XgX",
"E . f.Q.:X>X1X,X,X,X1X,X1X,X1X=X4XY.=.  v.T.'.!.).^.~./.^.^.^.^.^.(.^.^.^.^.^.^.(.^.^.(.(.(.^.(.(.(.(.^.^.(.^.^.^.^.^.^.^.].|.qX",
"R . f.Q.:X>X1X,X,X,X1X1X,X,X1X=X4XY.[   ;.q.r.9.w.w.w.w.w.w.w.w.w.w.w.w.w.w.0.0.w.w.w.w.w.w.w.w.w.w.w.w.w.w.w.w.w.w.w.w.w.e.y.q.",
"R . f.Q.:X>X<X>X,X,X,X,X,X,X1X=X4XY.'   + - : : : : : : : : : : : : : : : : : : : : : : : : : : : : : : : : : : : : : : : - ; 5 ",
"E . f.Q.:X>X1X,X,X,X>X>X>X>X,X@X4XY.'   W O.#.}  . .}  . .}  . . . . . . .} X.o.|  .X.X...o.$.O.o.O.&.o.O.%.&.%.X.}  . .X.&.+.@.",
"E . f.Q.:X>X1X,X,X,X>X>X>X,X>X=X4XY.] . hXhXhXhXhXhXhXhXhXhXhXhXhXhXhXhXhXhXhXhXhXhXhXhXhXhXhXhXhXhXhXhXhXhXhXhXhXhXhXhXhXhXhXhX",
"E . f.Q.:X>X1X,X,X,X>X>X>X>X1X=X4XR.] o hXhXhXhXhXhXhXhXhXhXhXhXhXhXhXhXhXhXhXhXhXhXhXhXhXhXhXhXhXhXhXhXhXhXhXhXhXhXhXhXhXhXhXhX",
"Y . i.W.*X+X=X+X@X@X@X@X@X@X@XoX1XI._ X hXhXhXhXhXhXhXhXhXhXhXhXhXhXhXhXhXhXhXhXhXhXhXhXhXhXhXhXhXhXhXhXhXhXhXhXhXhXhXhXhXhXhXhX",
"Y . c..X6X6X6X5X5X5X5X5X5X5X5X4X9XOX*.X hXhXhXhXhXhXhXhXhXhXhXhXhXhXhXhXhXhXhXhXhXhXhXhXhXhXhXhXhXhXhXhXhXhXhXhXhXhXhXhXhXhXhXhX",
"d . 5.C.F.S.S.S.S.S.S.S.S.S.S.A.G.V.( o hXhXhXhXhXhXhXhXhXhXhXhXhXhXhXhXhXhXhXhXhXhXhXhXhXhXhXhXhXhXhXhXhXhXhXhXhXhXhXhXhXhXhXhX",
"u . ^ <.2.1.1.1.1.1.1.1.1.1.1.,.3.>.h   hXhXhXhXhXhXhXhXhXhXhXhXhXhXhXhXhXhXhXhXhXhXhXhXhXhXhXhXhXhXhXhXhXhXhXhXhXhXhXhXhXhXhXhX",
"f 4 % $ $ $ $ $ $ $ $ $ $ $ $ $ $ $ & 2 hXhXhXhXhXhXhXhXhXhXhXhXhXhXhXhXhXhXhXhXhXhXhXhXhXhXhXhXhXhXhXhXhXhXhXhXhXhXhXhXhXhXhXhX",
"hXw e t 8 q y 8 8 y q 8 y y 9 y 8 8 e i hXhXhXhXhXhXhXhXhXhXhXhXhXhXhXhXhXhXhXhXhXhXhXhXhXhXhXhXhXhXhXhXhXhXhXhXhXhXhXhXhXhXhXhX",
"hXhXhXhXhXhXhXhXhXhXhXhXhXhXhXhXhXhXhXhXhXhXhXhXhXhXhXhXhXhXhXhXhXhXhXhXhXhXhXhXhXhXhXhXhXhXhXhXhXhXhXhXhXhXhXhXhXhXhXhXhXhXhXhX",
"hXhXhXhXhXhXhXhXhXhXhXhXhXhXhXhXhXhXhXhXhXhXhXhXhXhXhXhXhXhXhXhXhXhXhXhXhXhXhXhXhXhXhXhXhXhXhXhXhXhXhXhXhXhXhXhXhXhXhXhXhXhXhXhX",
"hXhXhXhXhXhXhXhXhXhXhXhXhXhXhXhXhXhXhXhXhXhXhXhXhXhXhXhXhXhXhXhXhXhXhXhXhXhXhXhXhXhXhXhXhXhXhXhXhXhXhXhXhXhXhXhXhXhXhXhXhXhXhXhX"
};
