/* XPM */
static char *result[] = {
/* columns rows colors chars-per-pixel */
"42 60 255 2 ",
"   c #000100",
".  c #0C0C04",
"X  c #0B0C0A",
"o  c #060704",
"O  c #120C0C",
"+  c #150703",
"@  c #071209",
"#  c #1A140D",
"$  c #15130A",
"%  c #040A13",
"&  c #160814",
"*  c #171714",
"=  c #091011",
"-  c #2C0101",
";  c #260500",
":  c #350000",
">  c #3C0500",
",  c #2B180A",
"<  c #341A0B",
"1  c #3B1906",
"2  c #2D1B15",
"3  c #2B2418",
"4  c #3B2816",
"5  c #3F230C",
"6  c #0F1728",
"7  c #1B252B",
"8  c #292927",
"9  c #383937",
"0  c #352C2B",
"q  c #430100",
"w  c #4A0707",
"e  c #550705",
"r  c #471607",
"t  c #571604",
"y  c #4D1316",
"u  c #6B0504",
"i  c #6E120F",
"p  c #48230B",
"a  c #592803",
"s  c #5E3301",
"d  c #492815",
"f  c #532C13",
"g  c #553317",
"h  c #652C00",
"j  c #673704",
"k  c #683914",
"l  c #7C290C",
"z  c #4C2627",
"x  c #562A2A",
"c  c #47372C",
"v  c #592E32",
"b  c #483833",
"n  c #573736",
"m  c #563529",
"M  c #693834",
"N  c #6D312A",
"B  c #674219",
"V  c #774519",
"C  c #70470B",
"Z  c #574439",
"A  c #544933",
"S  c #6B4628",
"D  c #7B4826",
"F  c #76583B",
"G  c #725133",
"H  c #796A3B",
"J  c #5C5B21",
"K  c #000447",
"L  c #041955",
"P  c #080F4F",
"I  c #062658",
"U  c #182A5C",
"Y  c #272957",
"T  c #323656",
"R  c #2D3152",
"E  c #000068",
"W  c #000078",
"Q  c #091A6C",
"!  c #08286B",
"~  c #18276A",
"^  c #082677",
"/  c #152778",
"(  c #0F3372",
")  c #2E3468",
"_  c #241942",
"`  c #4C3A46",
"'  c #37446F",
"]  c #534F4C",
"[  c #6C584C",
"{  c #7A6549",
"}  c #717152",
"|  c #475773",
" . c #685369",
".. c #717773",
"X. c #5E7957",
"o. c #8B1507",
"O. c #93120B",
"+. c #A90902",
"@. c #B30201",
"#. c #B40B02",
"$. c #B90605",
"%. c #A91408",
"&. c #B4160A",
"*. c #AB1A14",
"=. c #B71B15",
"-. c #932809",
";. c #A82517",
":. c #B62C16",
">. c #AB3029",
",. c #C81809",
"<. c #CB1D13",
"1. c #D81C16",
"2. c #CC110C",
"3. c #E50E07",
"4. c #C8240C",
"5. c #DB2414",
"6. c #D02313",
"7. c #CA3525",
"8. c #CE1F21",
"9. c #88471C",
"0. c #934817",
"q. c #91490D",
"w. c #A44A16",
"e. c #844C27",
"r. c #85552B",
"t. c #975B29",
"y. c #835432",
"u. c #8A5A36",
"i. c #985936",
"p. c #914532",
"a. c #A64836",
"s. c #A85435",
"d. c #876239",
"f. c #96623A",
"g. c #8B6526",
"h. c #B66828",
"j. c #A66531",
"k. c #8E6813",
"l. c #C95F2B",
"z. c #AD2854",
"x. c #855947",
"c. c #93594D",
"v. c #876646",
"b. c #887356",
"n. c #977253",
"m. c #AA7B55",
"M. c #AC784E",
"N. c #947964",
"B. c #957867",
"V. c #887D73",
"C. c #8D7769",
"Z. c #AC6356",
"A. c #CF7B69",
"S. c #C77755",
"D. c #708455",
"F. c #D68E39",
"G. c #D9BA34",
"H. c #BBD333",
"J. c #D1D712",
"K. c #DAE80B",
"L. c #E9EB06",
"P. c #E7E619",
"I. c #F5F211",
"U. c #D0D234",
"Y. c #DAE623",
"T. c #E9E929",
"R. c #BA8459",
"E. c #A9835E",
"W. c #8B837A",
"Q. c #978679",
"!. c #9F8A70",
"~. c #A9856A",
"^. c #BA8B67",
"/. c #B99466",
"(. c #AD8D77",
"). c #A4A95C",
"_. c #C4895B",
"`. c #DD9F52",
"'. c #C68B66",
"]. c #C69269",
"[. c #D89A6A",
"{. c #C59877",
"}. c #D79972",
"|. c #DA9B74",
" X c #D79776",
".X c #E29670",
"XX c #DCA37D",
"oX c #D8A478",
"OX c #D4A26E",
"+X c #E7A77B",
"@X c #F8AE78",
"#X c #FCB37D",
"$X c #F7B27C",
"%X c #F0A86E",
"&X c #DAAB4A",
"*X c #BDC446",
"=X c #F6D774",
"-X c #F3CB6D",
";X c #F5E871",
":X c #CACC55",
">X c #000F8C",
",X c #0A2883",
"<X c #142683",
"1X c #183A88",
"2X c #0B379A",
"3X c #14339A",
"4X c #253484",
"5X c #0009AC",
"6X c #0736A5",
"7X c #1535A4",
"8X c #0F35B2",
"9X c #343CA5",
"0X c #344392",
"qX c #3241A3",
"wX c #475697",
"eX c #7B7A90",
"rX c #4045A0",
"tX c #0000C6",
"yX c #867D88",
"uX c #758180",
"iX c #8A8483",
"pX c #948E89",
"aX c #958B83",
"sX c #979188",
"dX c #969693",
"fX c #A68B83",
"gX c #AFA9A4",
"hX c #B2ABA5",
"jX c #B3AEA9",
"kX c #B8B0AA",
"lX c #C59883",
"zX c #D99C84",
"xX c #DBA983",
"cX c #D8A685",
"vX c #D3A88A",
"bX c #E9AB82",
"nX c #E6A785",
"mX c #F7AD84",
"MX c #EDB386",
"NX c #F4B283",
"BX c #FBB584",
"VX c #FEBB85",
"CX c #FEBB8B",
"ZX c #F7B688",
"AX c #F8B792",
"SX c #DEB6AA",
"DX c #FCC98D",
"FX c #EFD2A8",
"GX c #EAE5D9",
"HX c #E9E9E7",
"JX c #FDFDFD",
"KX c #F7F6F5",
"LX c #F5FAEA",
"PX c #DED2D5",
"IX c None",
/* pixels */
"IXIXIXIXIXIXIXIXIXIXIXIXIXIXIXIXIXIX] x v v m v v v n v n M v x ] IXIXIXIXIXIXIXIXIX",
"IXIXIXIXIXIXIXIXIXIXIXIXIXIXIXIXIXIXz q q > q q q > q q w q e q b IXIXIXIXIXIXIXIXIX",
"IXIXIXIXIXIXIXIXIXIXIXIXIXIXIXIXIXIXx e e y e r w y y f 4 3 t e m IXIXIXIXIXIXIXIXIX",
"IXIXIXIXIXIXIXIXIXIXIXIX] x v x z N ;.<.;.;.=.&.;.%.>.[.-X{.;.&.>.N x ` IXIXIXIXIXIX",
"IXIXIXIXIXIXIXIXIXIXIXIXx q w w w i <.5.6.5.1.6.5.3.l.=X;X=X7.5.7.e q x IXIXIXIXIXIX",
"IXIXIXIXIXIXIXIXIXIXIXIXx : w w - i 8.1.4.,.4.4.,.2.7.-X;X-X$.$.@.e e x IXIXIXIXIXIX",
"IXIXIXIXIXIXIXIXIXM z M ;.=.:.*.;.*.=.=.*.&.$.:.F.F.F.-X;X=XPXPXSXM q v IXIXIXIXIXIX",
"IXIXIXIXIXIXIXIXIXx ; i 1.5.3.1.6.4.$.$.#.%.@.7.&XG.G.;X;X;XLXJXGX] - v IXIXIXIXIXIX",
"IXIXIXIXIXIXIXIXIXx + i <.4.6.4.4.,.%.#.#.;.+.>.`.&X&XDX;XFXLXJXGX] : v IXIXIXIXIXIX",
"IXIXIXIXIXIX` x N *.o.*.1.4.<.&.&.,.%.&.O.t 1 i G G F b.b.b.iXQ.V.0 ; 2 9 7 ] IXIXIX",
"IXIXIXIXIXIXz > u $.$.&.1.<.<.+.#.#.+.#.O.  %     o   o           % @ o @   0 IXIXIX",
"IXIXIXIXIXIXx > u %.@.&.1.1.<.%.*.%.%.&.O.+ O # , # , 3 3 3 8 0 3 $ . O $   8 IXIXIX",
"IXIXIXn y M o.o.O.%.%.%.&.,.&.t i e r e w @ @ + . o o . + +     o . + . X o * 0 8 8 ",
"IXIXIXm > i =.&.$.2.#.%.O.#.o.@ % % = % @ @ O O $ * $ . O O * * * O O O X $ X . # * ",
"IXIXIXx q u +.@.@.$.#.%.#.#.o.o +         = & O       X = =       O % X X o X o   o ",
"IXIXIXx : M A..XS.o.-.-.-.-.-.f p A E.~.C.*   0 C.~.C.3   0 C.~.B.IXIXIXIXIXIXIXIXIX",
"IXIXIXn ; x.AXVXOXt B j j s j B s d.OXbXlX*   A {.nX{.0   b lXMXvXIXIXIXIXIXIXIXIXIX",
"IXIXIXy   y.AXBX[.e p h C C s h w G [.XX(.$   k ].cX'.4   c (.+XcXIXIXIXIXIXIXIXIXIX",
"z IXc.A.A.m.'.R._._.[.M.j s D E.E.R.%X$X{.$   S oX$X[.d o n cXBX+Xm.A { v.H b.IXIXIX",
"y ; c.AXAXXXe.S m.#XBX[.k a r.oXXX+X$X#XvX3 % S +XDX%Xc   n nXCX+Xr.B -.V C F IXIXIX",
"y : c.mXZX}.d.{ m.MX#X[.k h y.oXoXxXmXBXvX    k +XAX[.,   z oXVX+Xk > e t q n IXIXIX",
"y - x.nXMX}.u.y.m.MXBX[.k s V M.n.R.@XBXbX~.!.^.%XBX@X(.~./.+X#X@X/.'._._.'.'.n.F { ",
"y - F  XxX^.u.y.m.MXCX[.k j j h e r.@X#XmXBXZXZX@X@X$XAXBXBX$X#X$XBXBX#X#XVXmXi.s S ",
"1 : y.XXnX].y.D M.NXBX[.k j j h q u.$XNX$XBXZXZX#X#XNXNXBX#X$XBX#XNX#XBXNXVX+Xy.a k ",
"1 q k E.E.M.R.m.'.NXCX[.k h 9.R.R._.NXVXMX~.Q.(.+XbXbXbX+XbXbXbXbXbX+XnXnXbXXXy.a B ",
"q e e a : u.cXXXnXMXCX[.k s f.BXVXBX@XBX|.    4 {..X X X[.[.}.}.}.[.}. X X|.[.e.s B ",
"> w t V j f.oXoX+XZXCX|.t q e.@X$X$XCXAXvX3 * Z vXnXzXxXxXXXcXcXxXxXcXcXxXnXXXe.h B ",
"IXIXZ V h e.R.M._.bXbX XM.n.R.$XBXXXm.(.C.$   0 b.B.B.B.N.N.N.N.N.N.N.N.B.B.N.b.[ IX",
"IXIXIXS h j h t y.|.|. XoXoX+XmXCXlX%     * * O                             8 IXIXIX",
"IXIXIXS j j k h u.cX+X+XoXXX+X$XCXlX&     %     $ # # # * $ # # # # # $ $   9 IXIXIX",
"IXIXIX[ G F k j y./.^.'.^.^.].bXMX Xv.{ { { v.[ # @ $ O $ $ $ . $ $ X * ] 3 ] IXIXIX",
"IXIXIXIXIXIXD h C r.G y.y.D v.oX X XcXvXcXcXxX(.3 * * . + . . . . X   8 IXIXIXIXIXIX",
"IXIXIXIXIXIXS j V i.f.H f.f.n.oXnX|.oXcX|.XX+X(.&     . o o o X . $   8 IXIXIXIXIXIX",
"IXIXIXIXIXIX[ G F G D S p.>.j._.'.'././.'.'.].~.S c b * 6 8 R 3 7 * 7 9 IXIXIXIXIXIX",
"IXIXIXIXIXIXIXIXIXz > u @.$.-.t.u.d.r.r.u.y.{ x.u.v.{ _ L T IXIXIXIXIXIXIXIXIXIXIXIX",
"IXIXIXIXIXIXIXIXIXv : i %.$.-.u.d.v.t.i.t.g.{ x.g.k.x.P K T IXIXIXIXIXIXIXIXIXIXIXIX",
"IXIXIXIXIXIXIXIXIXN u i %.@.;.a.a.c.[  . . .[ [  . .| ~ Q 4XIXIXIXIXIXIXIXIXIXIXIXIX",
"IXIXIXIXIXIXIXIXIX>.+.*.&.#.*.:.2.8.I Q Q / U ~ ( 2X7X1X8X3XU I ' IXIXIXIXIXIXIXIXIX",
"IXIXIXIXIXIXIXIXIX>.$.+.@.$.@.2.3.z.! ~ ,X>X>X>X5X5X>X7X8X3XE L L IXIXIXIXIXIXIXIXIX",
"IXIXIXIXIXIXIXIXIXz.a.>.c.a.>.a.7.c.^ ! ) { X.X...D.X.7X6X1XJ H { IXIXIXIXIXIXIXIXIX",
"IXIXIXIXIXIXIXIXIXfXQ.fXaXaX(.aX!.iX4XQ ] J.L.K.Y.L.H.qX5XwXY.T.*X] K T IXIXIXIXIXIX",
"IXIXIXIXIXIXIXIXIXaXW.V.V.V.V.V.W...Q >X] Y.P.T.Y.T.U.0X5X0XY.I.U.] 6 T IXIXIXIXIXIX",
"IXIXIXIXIXIXIXIXIXjXhXhXgXgXgXgXjXdX' 4X .K.T.K.K.I.J.0X,X| U.I.U.A K T IXIXIXIXIXIX",
"IXIXIXIXIXIXdXW.kXKXKXKXKXKXKXKXKXHXdXeXsXL.P.P.Y.I.J.qX5XwXJ.I.J.A K T IXIXIXIXIXIX",
"IXIXIXIXIXIXpXW.jXJXJXJXJXJXJXJXJXHXdXW./.L.L.P.L.I.K.0XtXwXU.I.U.] E T IXIXIXIXIXIX",
"IXIXIXIXIXIXpXV.hXKXJXJXJXJXKXHXHXPXeX..W.*X*XH.H.*X*X' 6XrX).H.).T K ) IXIXIXIXIXIX",
"IXIXIXIXIXIXsXV.hXKXJXJXJXJXHXiXaXeX>X! ^ W E P L W W 6X7X7X>X^ >XI L Y IXIXIXIXIXIX",
"IXIXIXIXIXIXsXW.gXJXJXJXJXJXHXiXsX../ ( ( ( <X<X( / ,X2X2X6X7X7X7XI P Y IXIXIXIXIXIX",
"IXIXIXIXIXIXsXV.hXJXJXJXJXJXHXV.sXV./ / / ~ / <X~ ~ / 3X3X3X( 1X4X) Y T IXIXIXIXIXIX",
"IXIXIXIXIXIXpXW.hXJXJXJXJXJXHXW.sX..<X^ <X/ / ! L P L / ~ ~ I L ) IXIXIXIXIXIXIXIXIX",
"IXIXIXIXIXIXpXW.kXJXJXJXJXJXHXiXsXeX^ Q ,X/ ! ,XL P L ^ ,X<XL K T IXIXIXIXIXIXIXIXIX",
"IXIXIXIXIXIXdXaXkXHXHXHXHXKXPXV.!.C.Y Y Y U U ~ Y _ Y ~ ~ ~ ) Y | IXIXIXIXIXIXIXIXIX",
"IXIXIXIXIXIXIXIXIXdXpXsXaXsX!.e.0.0.D 9.N r < p V q.C p 1 b IXIXIXIXIXIXIXIXIXIXIXIX",
"IXIXIXIXIXIXIXIXIXpXaXaXiXaXB.9.0.0.0.0.9.> + d 0.w.e.< ; c IXIXIXIXIXIXIXIXIXIXIXIX",
"IXIXIXIXIXIXIXIXIXW.V.V.Q.B.n.0.0.0.0.0.V g d g N 0.V d r Z IXIXIXIXIXIXIXIXIXIXIXIX",
"IXIXIXIXIXIXIXIXIXZ r k y.r.0.0.0.e.e.0.0.j.j.g.d 3 f j.j.j.Z Z [ IXIXIXIXIXIXIXIXIX",
"IXIXIXIXIXIXIXIXIXc ; f 9.q.q.0.0.9.0.0.w.h.l.h.d % f h.l.h.p + Z IXIXIXIXIXIXIXIXIX",
"IXIXIXIXIXIXIXIXIXb : f D e.9.V e.e.e.-.0.j.h.t.p , f t.h.t.d - Z IXIXIXIXIXIXIXIXIX",
"IXIXIXIXIXIXIXIXIXc - p p p p p p p p p p d f 5 1 r < 4 a a 3 ; Z IXIXIXIXIXIXIXIXIX",
"IXIXIXIXIXIXIXIXIXc - 4 < < < 1 1 < < , < , , < 1 5 5 , , 1 4 ; ] IXIXIXIXIXIXIXIXIX"
};
