/* XPM */
static char *result[] = {
/* columns rows colors chars-per-pixel */
"46 60 256 2 ",
"   c #010000",
".  c #030B02",
"X  c #0B0C05",
"o  c #0D0C0A",
"O  c #080505",
"+  c #120D04",
"@  c #180806",
"#  c #051208",
"$  c #181608",
"%  c #040813",
"&  c #191613",
"*  c #0F1010",
"=  c #2C0200",
"-  c #250503",
";  c #3C0101",
":  c #360703",
">  c #2B1708",
",  c #3A1402",
"<  c #341B05",
"1  c #3C1A04",
"2  c #341B0A",
"3  c #3B1C0B",
"4  c #321406",
"5  c #251F1A",
"6  c #271D16",
"7  c #381B15",
"8  c #3C0E10",
"9  c #3B220A",
"0  c #26211C",
"q  c #362316",
"w  c #091131",
"e  c #2E1426",
"r  c #2C2B2A",
"t  c #282525",
"y  c #392A25",
"u  c #343231",
"i  c #19242E",
"p  c #430302",
"a  c #4B0100",
"s  c #480908",
"d  c #441606",
"f  c #531506",
"g  c #491616",
"h  c #531816",
"j  c #4B0309",
"k  c #67130E",
"l  c #78150A",
"z  c #701010",
"x  c #582703",
"c  c #5C3601",
"v  c #562715",
"b  c #4C2711",
"n  c #642B01",
"m  c #673805",
"M  c #743606",
"N  c #793E1B",
"B  c #743714",
"V  c #6C2E17",
"C  c #4C1F23",
"Z  c #442C24",
"A  c #532826",
"S  c #47352A",
"D  c #563A33",
"F  c #4F3C2E",
"G  c #6B3630",
"H  c #6B4317",
"J  c #78431B",
"K  c #4C4139",
"L  c #584436",
"P  c #5A552A",
"I  c #774624",
"U  c #7B5427",
"Y  c #6C4C32",
"T  c #77622D",
"R  c #636124",
"E  c #00024A",
"W  c #000754",
"Q  c #011458",
"!  c #111A4E",
"~  c #261C47",
"^  c #142257",
"/  c #172852",
"(  c #242D59",
")  c #2F3350",
"_  c #010267",
"`  c #061866",
"'  c #000576",
"]  c #0F1B74",
"[  c #13286C",
"{  c #0D2679",
"}  c #132972",
"|  c #132678",
" . c #1A3578",
".. c #0E2A68",
"X. c #2A366D",
"o. c #58344B",
"O. c #324573",
"+. c #524E4D",
"@. c #654D48",
"#. c #69564D",
"$. c #7A5C47",
"%. c #675753",
"&. c #775B54",
"*. c #654D51",
"=. c #776356",
"-. c #6B6852",
";. c #726C6C",
":. c #595A69",
">. c #860A0A",
",. c #88130B",
"<. c #961309",
"1. c #90100E",
"2. c #A80601",
"3. c #B70702",
"4. c #A91307",
"5. c #B61408",
"6. c #A61C14",
"7. c #B61616",
"8. c #B00E13",
"9. c #8F2C0D",
"0. c #B92618",
"q. c #AB2812",
"w. c #852928",
"e. c #B23627",
"r. c #C61608",
"t. c #D81C14",
"y. c #CD0F0E",
"u. c #C8240C",
"i. c #C92517",
"p. c #D32713",
"a. c #C72E2B",
"s. c #8A4718",
"d. c #944A1A",
"f. c #8C4304",
"g. c #8C4724",
"h. c #934A22",
"j. c #994727",
"k. c #86562A",
"l. c #8B5D34",
"z. c #865B38",
"x. c #985733",
"c. c #945D29",
"v. c #A64B2C",
"b. c #886138",
"n. c #966637",
"m. c #B97136",
"M. c #AD662D",
"N. c #BB6D1E",
"B. c #C54A27",
"V. c #C17125",
"C. c #875A43",
"Z. c #896749",
"A. c #996A46",
"S. c #846A59",
"D. c #876B55",
"F. c #8C735C",
"G. c #95745C",
"H. c #966F4D",
"J. c #A8764B",
"K. c #AC7958",
"L. c #B1754E",
"P. c #8A7977",
"I. c #8D6E66",
"U. c #B77863",
"Y. c #CA6E58",
"T. c #7D8857",
"R. c #B0BA38",
"E. c #A7A42D",
"W. c #D2B33D",
"Q. c #E1A83B",
"!. c #B6CA2E",
"~. c #CFD312",
"^. c #DEE912",
"/. c #E7E61A",
"(. c #EEEF0B",
"). c #D0D52F",
"_. c #D9E432",
"`. c #EEEF28",
"'. c #E5D92E",
"]. c #BB8458",
"[. c #A89E49",
"{. c #98AA56",
"}. c #A9AF50",
"|. c #8D8774",
" X c #B78865",
".X c #AF8C72",
"XX c #99A45E",
"oX c #C48A51",
"OX c #C68D69",
"+X c #CC946B",
"@X c #C7956B",
"#X c #C89877",
"$X c #D49D74",
"%X c #D89D77",
"&X c #D4966F",
"*X c #DCA37B",
"=X c #D9A378",
"-X c #CEA374",
";X c #E1A57B",
":X c #E7A97A",
">X c #F7AE7B",
",X c #FCB37D",
"<X c #F4B17E",
"1X c #EDB07B",
"2X c #DCA442",
"3X c #C4C844",
"4X c #F1D372",
"5X c #F7E873",
"6X c #DFE941",
"7X c #071489",
"8X c #092687",
"9X c #162587",
"0X c #143498",
"qX c #0F3292",
"wX c #2C3C8B",
"eX c #0A1AA6",
"rX c #0227A6",
"tX c #0C34AE",
"yX c #666B85",
"uX c #777890",
"iX c #4A4D82",
"pX c #977E95",
"aX c #988884",
"sX c #93918A",
"dX c #908B8F",
"fX c #AB928A",
"gX c #B1B2B3",
"hX c #B8A69E",
"jX c #D5A381",
"kX c #DAA887",
"lX c #DDB18D",
"zX c #E2AA83",
"xX c #E7AB83",
"cX c #F6AE81",
"vX c #ECB489",
"bX c #F6B383",
"nX c #FCB482",
"mX c #FDB985",
"MX c #FDBB8A",
"NX c #F8B589",
"BX c #FEB792",
"VX c #D0B1A8",
"CX c #EDD585",
"ZX c #F7E683",
"AX c #DEC5BA",
"SX c #BFBFC3",
"DX c #D6D5D4",
"FX c #D2CFCE",
"GX c #E4C7C3",
"HX c #ECDBC9",
"JX c #F0EDD4",
"KX c #E9E6E7",
"LX c #FDFEFE",
"PX c #F8F9FA",
"IX c #F0F4F4",
"UX c None",
/* pixels */
"UXUXUXUXUXUXUXUXUXUXUXUXUXUXUXUXUXUXg ; ; p s p p : ; d d d 8 ; D UXUXUXUXUXUXUXUXUXUXUXUXUX",
"UXUXUXUXUXUXUXUXUXUXUXUXUXUXUXUXUXUXg ; ; ; ; ; p s p = = ; : p o.UXUXUXUXUXUXUXUXUXUXUXUXUX",
"UXUXUXUXUXUXUXUXUXUXUXUXUXUXUXUXUXUXV l l l l l l ,.,.Z.H.Z.V >.w.UXUXUXUXUXUXUXUXUXUXUXUXUX",
"UXUXUXUXUXUXUXUXUXUXUXUXA h A h A z i.t.p.p.p.u.i.p.B.4X5X,XB.a.a.k C A UXUXUXUXUXUXUXUXUXUX",
"UXUXUXUXUXUXUXUXUXUXUXUX8 ; ; p ; z p.t.t.t.p.u.y.y.u.4X5X4Xu.r.3.k a g UXUXUXUXUXUXUXUXUXUX",
"UXUXUXUXUXUXUXUXUXUXUXS.k z k h k 1.0.u.u.u.0.0.B.a.N.4XZXCXU.Y.U.G a h UXUXUXUXUXUXUXUXUXUX",
"UXUXUXUXUXUXUXUXUXC h w.0.i.0.0.0.r.4.3.3.5.2.e.Q.Q.W.5X5XZXHXKXHX=.: A UXUXUXUXUXUXUXUXUXUX",
"UXUXUXUXUXUXUXUX&.f j 1.p.i.t.t.t.p.3.4.4.r.3.e.Q.Q.Q.4X5XZXJXLXIX;.= A UXUXUXUXUXUXUXUXUXUX",
"UXUXUXUXUXUXUXUX&.j s 1.t.t.t.t.p.r.3.4.4.6.>.e.2X2XW.4X4XCXJXIXDX;.- S UXUXUXUXUXUXUXUXUXUX",
"UXUXUXUXUXUXv A V 1.<.q.i.p.i.8.5.3.4.2.,.s = g F v P P P P -.:.-.r @ - t 0 r UXUXUXUXUXUXUX",
"UXUXUXUXUX*.h a >.8.y.r.u.u.5.4.4.3.4.5.,.. # .       . . . . .     @ O .   t UXUXUXUXUXUXUX",
"UXUXUXUXUX%.s p ,.8.2.r.t.t.i.4.8.8.7.7.,.- + @ $ $ $ $ $ $ & & & * # X *   t UXUXUXUXUXUXUX",
"UXUXUXf G G 1.<.<.3.4.5.r.r.<.f f h k k g @ o @ @ o @ o o o o + @ X # X + X o u r r UXUXUXUX",
"UXUX%.a j 2.5.r.3.r.3.3.2.4.z . # % # % # X o o $ & & o X + & & & X . X + X X .   & UXUXUXUX",
"UXUX%.a j >.2.2.2.2.4.4.4.4.l   o         + + O       X + X       o & * * + o * o 0 UXUXUXUX",
"UXUX#.a j v.Y.Y.v.l 9.l 9.<.n b < D D.S.#.O O r =.S.=.& O & $.D.=.+.r u u r r r t u UXUXUXUX",
"UXUX%.k a OX,XnXL.n J M M M M H c A.kXkX.X    +.#XlXfXq   r .XvXlXUXUXUXUXUXUXUXUXUXUXUXUXUX",
"UXUX*.O   OXMXCXJ.= x x m m m x ; c.=X=X.X    K @X;X@X0   y .XvXjXUXUXUXUXUXUXUXUXUXUXUXUXUX",
"UXUXI.A.z.U.*X=X].A.J.k.n c U n.C.K.;X1XOX    L $X1X$X0   y @XvXkXUXUXUXUXUXUXUXUXUXUXUXUXUX",
"g g OXBXcX].k.k.+XmX,X].x c A.*X%XjXbXmX$X  % Y kXMX;Xq O S -XMXxX].Z.H.H.Z.F.UXUXUXUXUXUXUX",
"p 3 &XMXbXU.U U +XMXmXoXd c J.;X;XxX,XmX#X. + L zXmX;Xq   u $XMXcXJ.U b.b.c.$.UXUXUXUXUXUXUX",
"p 8 OXMXcX Xb.U +XnX,XU.x m n.+X&X%XbXNX#Xq y #.xXmX:XD r L %XmX1X].x.A.A.n.H.UXUXUXUXUXUXUX",
"p 8 U.xX%XK.k.k.+XMX,XoXf H m J V A.NXNXNX;XkXvXNXcX>XzXlX:X>X,X<X<X1X1X1X>XvX X$.D.UXUXUXUX",
"s 8 U.zX%XK.k.k.+XmX,X].f H m m a A.NX,X,X,XmX,XcXcXnXNXNX,X,X<X<X,X,X,X,X,XNX].U A.UXUXUXUX",
"p 8 U.*X=XK.k.k.+XnXmXoXf B M J k n.,X,X<XxXvXcXNXNXNXbX,X,XbXbXcXbXbXcXcXbXNX].k.Z.UXUXUXUX",
"p s I l.U  X#X@X:XnXmX].x n n.=X=X;X,XNXjX@.@.D.%X;X=X*X;X=X*X*X;X;X;X;X*X;X*XK.U Z.UXUXUXUX",
"s p x V a  XkX=XxXbXnXoXx f L.mXmX,X<XMX#X  O S +X*X%X%X%X%X%X%X%X%X%X%X%X$X*XJ.U Z.UXUXUXUX",
"g d n H n ].*X=X:XvXmX].a f J.,X<XbXvXmX$X  * L jXjXjXjXjXjX*XjXjXjX*XjX*XjXjX.Xb.D.UXUXUXUX",
"UXUXY m m l.J.A.+X1X:X&XJ.].+XbXmX$XG.G.Z.  % q =.S.S.S.S.S.S.S.S.S.S.S.S.S.D.P.UXUXUXUXUXUX",
"UXUXD.c H n f p J.=X%X*X=X-X:X<XMX X      0 0 & O                           % UXUXUXUXUXUXUX",
"UXUX=.H H m J n ].zXjXjX-X-X;XNXMX X            6 5 0 0 5 5 5 5 5 5 0 5 $ 6 r UXUXUXUXUXUXUX",
"UXUXUXY UXH H n A.OX X#X%X-X;XxXNX#XZ.D.S.D.F.&.& . * O O # O X O X . # +.u +.UXUXUXUXUXUXUX",
"UXUXUXUXUX=.M c U l.k.K.jX$X-X$X$X=X=XjXjX$XzX.Xq X 6 X + + + + + + . 0 UXUXUXUXUXUXUXUXUXUX",
"UXUXUXUXUX&.B m U b.l. X;X%X=X=X*X%X=XjXjX%X:X.X6   X . X X . . . .   5 UXUXUXUXUXUXUXUXUXUX",
"UXUXUXUXUX&.V n s.j.j.L.&X+X+X+X#X+XOX#X#XOX#X.Xy q q w w w t 0 t t t u UXUXUXUXUXUXUXUXUXUX",
"UXUXUXUXUX*.s a l 4.2.w.C.z.z.C.z.z.l.z.z.z.z.$.$.b.T ~ _ ) UXUXUXUXUXUXUXUXUXUXUXUXUXUXUXUX",
"UXUXUXUXUX*.8 ; >.4.2.9.C.z.l.Z.z.b.b.z.l.z.l.x.n.b.b.~ _ ) UXUXUXUXUXUXUXUXUXUXUXUXUXUXUXUX",
"UXUXUXUXUX#.s ; ,.5.3.e.x.x.v.x.x.l.T C.z.&.&.&.=.-.:.^ _ ) UXUXUXUXUXUXUXUXUXUXUXUXUXUXUXUX",
"UXUXUXUXUX#.h : ,.0.7.6.q.6.0.a.e.q.s f C ( X.X.O.X.wXqXqX .O./ O.UXUXUXUXUXUXUXUXUXUXUXUXUX",
"UXUXUXUXUX*.j p z 7.7.6.6.6.0.i.a.6.j a e ] 8X8XrX0X0X0X0XqX{ w ) UXUXUXUXUXUXUXUXUXUXUXUXUX",
"UXUXUXUXUX*.a p z 2.2.2.2.2.3.y.y.8.8 p 7 [ ^ ] 0X9XqXtXtX0X` w ) UXUXUXUXUXUXUXUXUXUXUXUXUX",
"UXUXUXS F =.;.;.hXGXAXAXGXGXGXGXGXVX;.;.[.R.R.!.R.!.{.wXrXX.{.~.!.-._ ) u S S S Z D UXUXUXUX",
"UXUX%.: = ;.fXP.DXLXLXLXLXLXPXPXLXDXpXpX[.'.`.(.(.(.). .eXO.3X`._.-._ ) 7 d 3 q 4 2 UXUXUXUX",
"UXUX#.= - ;.fXI.FXLXPXPXLXPXPXPXLXDXT.P.XX/./././.(.).wXeXO.).(.).R W / @ - - 3 2 q UXUXUXUX",
"UXK Y B M ;.|.P.FXPXPXPXPXLXKXSXFXhX+.iXT.(././.^.(.).wXrXwX3X(._.R % y Y k.k.A : 7 K UXS UX",
"q 9 9.j.f.F.sX|.FXLXPXPXPXLXFX;.dX;.` 7X+./.(./.^.(.).X.8XO.3X`._.R   q x.V.m.I = b , q 7 UX",
"< < J d.f.F.|.P.FXLXLXLXPXLXFXI.dXyX` 7X-.6X(.(.`.(.).X.rXO.!.(.'.T % q c.V.m.I @ 3 1 9 - UX",
"2 < J h.f.G.fXuXFXLXLXLXPXLXDX|.dXuX` ] O.XX}.}.}.}.XX0XrXwXXXR.[.P @ 1 k.N.n.V @ q 9 d : UX",
"2 < N h.f.G.aXP.FXLXLXLXPXLXFXP.dXyX` { { ' _ _ _ _ ' tXtX0XE W E e 9 d B d.d.m > 2 2 d = UX",
"> 9 N h.s.G.|.P.DXPXLXLXLXLXFXdXsX;.` { [  . ./ (  .9X0X0X0X..i / & < 8 G d.d.V 4 9 , 9 = ;.",
"2 < J j.f.;.dX;.SXKXKXKXKXKXSXyXdX:.] } { 8X8X8X8X8X8XqXqX9X! ! i y h v G J J v 4 9 S F y UX",
"< 9 N g.s.o.{ ` yXdXaXaXaXsX;.' 9X9X{ { | } [ | 9X[ ..` ` i t e 7 I g.g.x 4 d 9 > 7 UXUXUXUX",
"1 1 J h.s.o.7X_ yXdXaXdXaXsXyX' 9X9X{ { { { { | { ....Q Q w t 1 9 J h.d.v < 1 9 4 7 UXUXUXUX",
"2 1 J g.s.D X.) ;.|.T.dXsXdXyX[ } } } [ } } } | } ..[ X.) ) t , d J s.g.x 2 3 1 , q UXUXUXUX",
"7 2 I h.s.x.x.A.Y S S I.UXUXUX( Q / / ^ ^ / ^ ^ ^ Q X.UXUXUXD 4 b I h.g.v > d 9 , q UXUXUXUX",
"4 , 9.d.s.M.m.Y.J   6 -.UXUXUX( W Q E W W W W E W E +.UXUXUXL = 1 N d.d.v < 3 1 = 2 UXUXUXUX",
"y Z J d.s.M.N.M.U y S UXUXUXUX) ^ X.( ( ( ( ( ( ( ~ :.UXUXUX@.q Z s.h.g.v 4 < q Z S UXUXUXUX",
"UXUXY x v V m P =.UXUXUXUXUXUXUXUXUXUXUXUXUXUXUXUXUXUXUXUXUXUXUXUXL x v b , 7 UXUXUXUXUXUXUX",
"UXUX+.- 7 4 = 6 UXUXUXUXUXUXUXUXUXUXUXUXUXUXUXUXUXUXUXUXUXUXUXUXUXD 4 4 2 1 y UXUXUXUXUXUXUX",
"UXUX%.= 7 1 1 q UXUXUXUXUXUXUXUXUXUXUXUXUXUXUXUXUXUXUXUXUXUXUXUXUX+.> 3 1 : y UXUXUXUXUXUXUX"
};
