/* XPM */
static char *result[] = {
/* columns rows colors chars-per-pixel */
"42 60 253 2 ",
"   c #010100",
".  c #0C0C0B",
"X  c #070806",
"o  c #130C0B",
"O  c #160902",
"+  c #071305",
"@  c #181509",
"#  c #181613",
"$  c #0C0B14",
"%  c #250100",
"&  c #2C0100",
"*  c #250606",
"=  c #330000",
"-  c #3B0100",
";  c #3B0804",
":  c #2C1B01",
">  c #2A1709",
",  c #351501",
"<  c #351B03",
"1  c #341A0C",
"2  c #3B1D0A",
"3  c #3A1708",
"4  c #251E1B",
"5  c #261914",
"6  c #391A16",
"7  c #3A0B12",
"8  c #3B2405",
"9  c #28211C",
"0  c #372919",
"q  c #35311B",
"w  c #0A1035",
"e  c #35163D",
"r  c #2D1D2A",
"t  c #2B2827",
"y  c #362C28",
"u  c #373533",
"i  c #382D32",
"p  c #440201",
"a  c #4C0101",
"s  c #44090A",
"d  c #560706",
"f  c #451508",
"g  c #571903",
"h  c #450711",
"j  c #481818",
"k  c #571815",
"l  c #660B09",
"z  c #7B0A05",
"x  c #67140B",
"c  c #781509",
"v  c #771612",
"b  c #6B1518",
"n  c #5A2802",
"m  c #4A2816",
"M  c #532616",
"N  c #542E09",
"B  c #632A02",
"V  c #673803",
"C  c #753606",
"Z  c #6E3B1C",
"A  c #6A3C11",
"S  c #6F2C1A",
"D  c #4C1C2A",
"F  c #492B25",
"G  c #4A3628",
"H  c #553A2A",
"J  c #473834",
"K  c #5B3334",
"L  c #553734",
"P  c #562B2E",
"I  c #693925",
"U  c #753330",
"Y  c #4F481B",
"T  c #7A451B",
"R  c #6B4717",
"E  c #564129",
"W  c #574538",
"Q  c #5E5A2B",
"!  c #794523",
"~  c #7B532C",
"^  c #664C39",
"/  c #7D5837",
"(  c #6B4E35",
")  c #7E6139",
"_  c #000A4B",
"`  c #061B48",
"'  c #16194A",
"]  c #000D51",
"[  c #061757",
"{  c #131C57",
"}  c #291942",
"|  c #361849",
" . c #381F59",
".. c #0C215D",
"X. c #142257",
"o. c #16244D",
"O. c #222E5A",
"+. c #242755",
"@. c #2D3351",
"#. c #0A1D66",
"$. c #151D65",
"%. c #001F75",
"&. c #0E246D",
"*. c #12256C",
"=. c #172469",
"-. c #0E277C",
";. c #0C287E",
":. c #082A77",
">. c #132674",
",. c #122873",
"<. c #12267A",
"1. c #182775",
"2. c #282E71",
"3. c #4E3A42",
"4. c #584B44",
"5. c #534B4D",
"6. c #795848",
"7. c #695856",
"8. c #6E564D",
"9. c #7B644B",
"0. c #786759",
"q. c #646358",
"w. c #6E6965",
"e. c #860907",
"r. c #87130B",
"t. c #931606",
"y. c #981313",
"u. c #AA0904",
"i. c #B30902",
"p. c #B90804",
"a. c #AC1304",
"s. c #A7150C",
"d. c #B4140A",
"f. c #B51607",
"g. c #A81513",
"h. c #B71915",
"j. c #8B2403",
"k. c #BC2617",
"l. c #BA3115",
"z. c #B23310",
"x. c #9F2524",
"c. c #C6190B",
"v. c #D71B09",
"b. c #C81A17",
"n. c #D41E16",
"m. c #D10502",
"M. c #CB240D",
"N. c #CD2312",
"B. c #C62519",
"V. c #D32217",
"C. c #D2260F",
"Z. c #D52325",
"A. c #94480B",
"S. c #8A471A",
"D. c #944817",
"F. c #875015",
"G. c #8D611B",
"H. c #864C23",
"J. c #9B4621",
"K. c #944A23",
"L. c #85562B",
"P. c #854C35",
"I. c #8A5C33",
"U. c #855E3A",
"Y. c #8B5D3A",
"T. c #845736",
"R. c #965834",
"E. c #985528",
"W. c #A6532A",
"Q. c #866339",
"!. c #96653B",
"~. c #B26A30",
"^. c #A65218",
"/. c #C7492A",
"(. c #C55725",
"). c #8B5B42",
"_. c #925941",
"`. c #876446",
"'. c #976847",
"]. c #816B5A",
"[. c #8B6B54",
"{. c #936A51",
"}. c #937456",
"|. c #A8764C",
" X c #A87953",
".X c #AD7850",
"XX c #8B7361",
"oX c #937267",
"OX c #AB7361",
"+X c #BF5C59",
"@X c #CB6E56",
"#X c #CAA43F",
"$X c #B68458",
"%X c #B4814C",
"&X c #98897D",
"*X c #BB8569",
"=X c #B88E73",
"-X c #B48C6E",
";X c #C58C5E",
":X c #C98B5E",
">X c #D99E43",
",X c #D4AF46",
"<X c #E7AB46",
"1X c #C48A65",
"2X c #C8946B",
"3X c #C79876",
"4X c #D69D75",
"5X c #DB9D73",
"6X c #D79D7A",
"7X c #D6996B",
"8X c #DCA375",
"9X c #D5A37D",
"0X c #DCA47B",
"qX c #D4A477",
"wX c #D4A471",
"eX c #E2A373",
"rX c #E6A87C",
"tX c #F7AE7B",
"yX c #F4B27C",
"uX c #FBB27C",
"iX c #FDB67B",
"pX c #EFB07B",
"aX c #E49758",
"sX c #F0D170",
"dX c #FCEA76",
"fX c #072882",
"gX c #12318E",
"hX c #233183",
"jX c #948D8A",
"kX c #978C86",
"lX c #97908A",
"zX c #9E969B",
"xX c #B19785",
"cX c #DA9F85",
"vX c #DCA482",
"bX c #D6A683",
"nX c #D0A98C",
"mX c #E3AC83",
"MX c #E9A982",
"NX c #E8B388",
"BX c #F5B383",
"VX c #FCB584",
"CX c #FDB985",
"ZX c #FDB589",
"AX c #FDBB8B",
"SX c #F5B78A",
"DX c #F1B490",
"FX c #F4CE8E",
"GX c #F4E58D",
"HX c #F0E6CE",
"JX c #F8F9F2",
"KX c #E9D8D6",
"LX c None",
/* pixels */
"LXLXLXLXLXLXLXLXLXLXLXLXLXLXLXLXLXLXj - s p p a s ; p f f f d - P LXLXLXLXLXLXLXLXLX",
"LXLXLXLXLXLXLXLXLXLXLXLXLXLXLXLXLXLX6 p p - p a p ; - = % = a % J LXLXLXLXLXLXLXLXLX",
"LXLXLXLXLXLXLXLXLXLXLXLXLXLXLXLXLXLXS v v v v v v z S !.{._.S z U LXLXLXLXLXLXLXLXLX",
"LXLXLXLXLXLXLXLXLXLXLXLXP k M j D v k.B.B.B.V.k.B.v.(.sXdXsX/.Z./.b 6 K LXLXLXLXLXLX",
"LXLXLXLXLXLXLXLXLXLXLXLX7 p p p & e.B.V.n.N.v.V.m.m./.sXGXsXz.m.i.a = P LXLXLXLXLXLX",
"LXLXLXLXLXLXLXLXLXLXLX6.M x x b b r.k.M.M.k.k.B././.(.sXGXsX@X@X+Xb a P LXLXLXLXLXLX",
"LXLXLXLXLXLXLXLXLXj D x.k.B.b.B.B.h.d.d.i.a.i.z.<X>X,XsXdXGXHXHXKXU - L LXLXLXLXLXLX",
"LXLXLXLXLXLXLXLXLXa p r.Z.n.n.n.V.b.i.a.u.f.i.z.<X<X<XsXdXGXJXJXJX8.= K LXLXLXLXLXLX",
"LXLXLXLXLXLXLXLXLXd a r.V.n.k.b.B.k.i.i.s.g.y.D.>X>X,XsXsXGXHXJXKXW * P LXLXLXLXLXLX",
"LXLXLXLXLXLXP m S y.t.g.V.N.k.d.f.a.i.p.r.h p 2 E N Y Q Q Q q.w.7.5 * 5 t 4 u LXLXLX",
"LXLXLXLXLX5.j a e.p.c.d.C.v.c.i.p.i.p.c.z X + X       X X X X X   X O X o   t LXLXLX",
"LXLXLXLXLXLXj p v d.p.c.C.v.c.y.g.d.p.h.v O O O @ @ @ @ @ # # # # o + + @   u LXLXLX",
"LXLXLXj K S.y.y.r.u.u.d.f.h.g.j f k d k f o o . o o o . + . + + X O o X + X # y t t ",
"LXLX7.p h e.p.c.d.i.p.a.u.d.z   X $ + + X $ $ . # # # o . . # @ @ . O X X X X X o X ",
"LXLX7.p d z u.i.u.s.u.a.i.f.x   o         X O         O o X       . . # @ o . # o . ",
"LXLX8.a - _.@X@XW.c j.j.t.j.C 8 < H ].[.8..   0 0.XX7.@ X 5 9.[.9.5.u u u y y y t t ",
"LXLX7.k & 1XVXVX;Xn T C C C V R V Q.9XNX-XX   H nXnXxX5   F =XNXnXLXLXLXLXLXLXLXLXLX",
"LXLX7.O   OXZXFX$X= g n V V V n p H.7X8X*XO   G 3X8X=X4   m =XnXnXLXLXLXLXLXLXLXLXLX",
"LXLXoX{.).*X0XqX*X'.|.L.V V ! '.`.%XeXpX-XX   G vXtX2X4   q nXpXvXLXLXLXLXLXLXLXLXLX",
"F = OXZXDX1XL.F.1XZXuX;Xn n '.8X4X8XyXCX3X#   W NXCXvXt   G 9XAXyX X`.{.{.'.XXLXLXLX",
"; = *XAXCX1X~ ~ 1XAXZX1XB n '.rX0XrXuXAX=X  O G NXAXcX* + m 6XAXpX~.~ U.U.E.[.LXLXLX",
"h = *XAXBX$XU.T.:XZXVX:XB B !.2X2X5XtXZX3XG y / mXZXMXE y ( 0XCXtX|.!.'.'.!.{.LXLXLX",
"h - OXMX8X%X/ T.;XCXCX;Xg A A R A '.BXuXBXMX0XrXyXiXyXvXmXrXyXuXuXpXMXmXMXuXBX$X`.`.",
"7 - OXcX8X.X) ~ ;XBXCX;Xg R V V f !.ZXuXuXZXCXVXuXtXyXCXZXiXuXyXuXiXCXVXyXiXuX.XT.Q.",
"f - OXvX0X$X/ ~ 1XZXVX;Xg R C A x R.VXuXBXNXNXNXBXuXBXDXtXuXBXBXVXBXyXBXSXyXBX XT.I.",
"s p ! Q.H. X3X3XeXuXZX;XB B !.eXeXeXtXVX6X8.4.9.6XrXMXvX0X8XrX0X0X0XeX0X9XeX5X XT.U.",
"p d x B p  XbXqXrXVXZX;Xn g |.CXiXuXtXCX3X    F 6X6X6X6X3X4X5X5X5X5X5X8X6X5X5X XT.Y.",
"6 h B T n $X0XqXmXBXZX;Xn a '.uXuXBXyXFX3X* X L nXbX6X6XbXbX9X9X9X9X9XbX6XvXbX XU.`.",
"LXLX( V V Q.|.'.;XrXrX7X.X.X2XVXVX6X{.oX9.    6 0.].].].].].0.].0.].].].0.].XXLXLXLX",
"LXLXLXV C n n p |.0X4X6XrX8XrXBXuX2X      t t @                             $ LXLXLX",
"LXLX9.R V V R B .X0XvXvX6X4XrXBXAX=X            4 9 9 4 4 4 # X $ $ . $ #   u LXLXLX",
"LXLXLX( LX~ R n !.-X-X2X9XqX0XMXBX3X[.}.[.[.[.6.@ X . .   @ H E E E E H E H 4.LXLXLX",
"LXLXLXLXLX].A V T I.~ .X8X6XqX4X4X4XqXqXqXqXbX-X9 X @ 5 X 1 / ).`.`.Q.!.Q.Q.].LXLXLX",
"LXLXLXLXLX9.A V H.!./ %XvXvXeXwXcXvXqX0XqXqXrX=X4         5 6.'.Y.Q.!.Y.I.I.[.LXLXLX",
"LXLXLXLXLXLXQ ( 6.7.4.XXxX3X2X2X2X2X2X2X2X2X2X-Xq 0 q q q m ( P./ [.}.[.[.`.XXLXLXLX",
"LXLXLXLXLXLXLXLXLXw w 3.9.G.R.Y.Q.I.U.I.U.Q.Q.U.Y.Q.) ).`.).j = P LXLXLXxX&X&X&XkXkX",
"LXLXLXLXLXLXLXLXLX` _ L Q.G.R.).) Q.Q.Y.Y.Y.) Y.Y.Y.Y.Y._.P.k - L LXLXLXzXlXkXkXlXlX",
"LXLXLXLXLXLXLXLXLX[ _ 3.9.6.).6.T.I.I.R.R.R.R.R.R.R.R.R.R.R.k p L LXLXLXLXjXlXlXlXlX",
"LXLXLXLXLXLX@.+.O.[ [ { 2.2.i 3 s r.l.B.V.B.B.l.l.l.l.l.B.x.g p K LXLXLXLXLXLXLXLXLX",
"LXLXLXLXLX@.[ ` ] { ` #.fXfX} - p e.B.N.N.n.M.v.v.v.v.v.v.M.k - K LXLXLXLXLXLXLXLXLX",
"LXLXLXLXLXLX&.` { { ' { fXhX} a h v n.N.B.n.N.M.N.N.N.N.N.k.x & K LXLXLXLXLXLXLXLXLX",
"LXLXLXy G @.[ ` $.*.{ $.fX<.} - ; l d.d.h.p.d.f.d.d.d.d.d.g.l = K LXLXLXLXLXLXLXLXLX",
"LXLX4.< 8 r [ ` #.1.1.1.;.,.} a p l i.i.i.p.i.i.i.i.i.u.i.u.l - K LXLXLXLXLXLXLXLXLX",
"LXLXLXO : r { ` &.fX1.fX:.,.} a p l h.a.a.f.a.a.a.d.a.a.a.g.k = K LXLXLXLXLXLXLXLXLX",
"J L ^ I Z i ] ` &.>.>.>.:.:.=.| } e e.c c e.z z z z z z z z d = k LXLXLXLXLXLXLXLXLX",
"0 3 Z J.D.J [ ` #.<.-.1.,.:.-.>.:.+.; h - s ; s h p h h h h s s a oXjXzXjXjXjXjXkXkX",
"3 : Z J.D.L [ ' $.>.fX<.,.,.-.,.fX| p p a a a a d a a a d a a f - oXlXjXjXjXjXjXlX&X",
"f : Z J.D.G [ ` =.=.*.<.-.-.-.<.<.+.} e e e e | | | |  . .| j 3 h {.}.oX0.0.0.w.0.0.",
"7 : Z J.D.L [ { &.-.=.<.<.<.<.>.<.;.<.<.>.<.;.:.,.:.fXgXgXgXt 2 j U A.S.2 % & % & % ",
"3 : Z D.D.J ] ` %.fX>.<.<.<.<.>.,.>.1.=.1.1.<.1.=.>.<.hXgXhXt : f S.A.D.M < 8 2 8 3 ",
"6 : Z J.D.H e t +.:.,.*.*.*.>.,.>.<.fX<.;.;.;.;.fXfX;.gXgX<.t : f H.A.D.m , 2 3 3 , ",
"f : Z J.A.S.P.H.L ` X.[ [ [ #.>.>.-.fXfX;.;.-.-.&.,.&.#.&.o.6 < f ! S.H.m , 2 6 1 1 ",
"f : Z J.D.D.A.S.L w [ [ [ [ #.1.>.,.<.<.-.<.>.>.>.<.$.[ [ ' 6 2 f H.D.H.N , 2 1 1 1 ",
"6 : I J.S.S.D.E.L w X.o.@.@.X.*.>.,.,.,.&.,.,.*.,.>.*.O.O.@.6 1 f Z K.S.m , 2 1 2 , ",
"6 > Z J.A.W.~.~.~ O 9 5.LXLXLXo.[ X.X.{ X.X.X.{ #.{ @.LXLXLXJ < f T K.K.N , 2 2 8 2 ",
"- : Z D.A.~.(.~.H.O 8 W LXLXLX' ] [ ] ] _ ] ] _ [ ] @.LXLXLXJ = f S.D.D.m , 2 < , = ",
"F y Z J.F.E.~.~.L.y P 4.LXLXLX@.+.O.O.O.O.O.O.O.+.+.5.LXLXLX4.0 m S.K.S.N < < 0 G y ",
"LXLX4.n M A V R ( LXLXLXLXLXLXLXLXLXLXLXLXLXLXLXLXLXLXLXLXLXLXLXLXL M N f , y LXLXLX",
"LXLX7.= 1 > * > LXLXLXLXLXLXLXLXLXLXLXLXLXLXLXLXLXLXLXLXLXLXLXLXLX5.* < f = J LXLXLX",
"LXLX7.& 2 3 < 0 LXLXLXLXLXLXLXLXLXLXLXLXLXLXLXLXLXLXLXLXLXLXLXLXLXW & 2 2 & u LXLXLX"
};
