/* XPM */
static char *result[] = {
/* columns rows colors chars-per-pixel */
"42 60 254 2 ",
"   c #010100",
".  c #0D0B05",
"X  c #0D0D0B",
"o  c #060708",
"O  c #140B07",
"+  c #07110B",
"@  c #15120C",
"#  c #050B13",
"$  c #161514",
"%  c #1A1915",
"&  c #091010",
"*  c #2D0201",
"=  c #270705",
"-  c #340101",
";  c #3D0101",
":  c #370907",
">  c #2B1708",
",  c #351403",
"<  c #361A0B",
"1  c #391D0C",
"2  c #3A1805",
"3  c #241B14",
"4  c #301314",
"5  c #172415",
"6  c #282219",
"7  c #372613",
"8  c #0A083C",
"9  c #2D1531",
"0  c #2A2724",
"q  c #342F30",
"w  c #430000",
"e  c #4C0100",
"r  c #480908",
"t  c #520102",
"y  c #550909",
"u  c #471508",
"i  c #561705",
"p  c #4E0E14",
"a  c #7A0A09",
"s  c #780808",
"d  c #6E130C",
"f  c #452606",
"g  c #5B2701",
"h  c #5B3414",
"j  c #522516",
"k  c #632D00",
"l  c #662805",
"z  c #663706",
"x  c #673617",
"c  c #75370C",
"v  c #4C172D",
"b  c #4C2724",
"n  c #552A29",
"m  c #493728",
"M  c #56362B",
"N  c #4A3633",
"B  c #5A3334",
"V  c #543431",
"C  c #552A32",
"Z  c #66372B",
"A  c #683B39",
"S  c #652726",
"D  c #6B4115",
"F  c #774519",
"G  c #58443A",
"H  c #4F4134",
"J  c #744C27",
"K  c #674934",
"L  c #795738",
"P  c #6E4F30",
"I  c #5E450F",
"U  c #0D194C",
"Y  c #07164A",
"T  c #000C56",
"R  c #091353",
"E  c #051858",
"W  c #09114E",
"Q  c #2C1E48",
"!  c #281B55",
"~  c #311C53",
"^  c #182248",
"/  c #14235A",
"(  c #082055",
")  c #312E52",
"_  c #031869",
"`  c #001F7C",
"'  c #09246B",
"]  c #14236A",
"[  c #142568",
"{  c #0D267B",
"}  c #052A7C",
"|  c #0B297C",
" . c #072776",
".. c #132673",
"X. c #132A73",
"o. c #14257B",
"O. c #1A247A",
"+. c #192979",
"@. c #133176",
"#. c #26256A",
"$. c #2D306E",
"%. c #221F6F",
"&. c #4D3B49",
"*. c #6A3D45",
"=. c #3A475E",
"-. c #4B4857",
";. c #6F5C4D",
":. c #66564B",
">. c #755B49",
",. c #765A57",
"<. c #694F4F",
"1. c #7B6549",
"2. c #756253",
"3. c #4C5465",
"4. c #4F5768",
"5. c #4A4E67",
"6. c #766C6B",
"7. c #5C6072",
"8. c #850907",
"9. c #86150D",
"0. c #96160D",
"q. c #93100E",
"w. c #AC0D02",
"e. c #A70606",
"r. c #B40D04",
"t. c #B70606",
"y. c #A61302",
"u. c #AC1304",
"i. c #A9140A",
"p. c #B21204",
"a. c #B81609",
"s. c #B61D14",
"d. c #AC1413",
"f. c #882F0D",
"g. c #AB2419",
"h. c #BA2712",
"j. c #8A2F27",
"k. c #BC3A24",
"l. c #AB3325",
"z. c #C60B08",
"x. c #C41106",
"c. c #CD1C0B",
"v. c #C1190D",
"b. c #C51912",
"n. c #D61A15",
"m. c #D91508",
"M. c #E51A13",
"N. c #CA240D",
"B. c #D5230E",
"V. c #CC2612",
"C. c #C82617",
"Z. c #D42215",
"A. c #D72419",
"S. c #D82620",
"D. c #924908",
"F. c #8D4A1C",
"G. c #8C471A",
"H. c #934819",
"J. c #87571B",
"K. c #AC4B1B",
"L. c #884923",
"P. c #954923",
"I. c #84552A",
"U. c #845B34",
"Y. c #895B37",
"T. c #935D39",
"R. c #96572F",
"E. c #AC4927",
"W. c #8C623B",
"Q. c #85673D",
"!. c #95663B",
"~. c #94632B",
"^. c #B26C29",
"/. c #CE5129",
"(. c #C3752B",
"). c #895947",
"_. c #8E5F54",
"`. c #856748",
"'. c #986B46",
"]. c #866A56",
"[. c #977559",
"{. c #857355",
"}. c #A6744A",
"|. c #AA7A54",
" X c #A77B55",
".X c #B17751",
"XX c #8E7B6D",
"oX c #AD7D65",
"OX c #BB5F45",
"+X c #D89235",
"@X c #D7B735",
"#X c #DBC13F",
"$X c #B98358",
"%X c #948577",
"&X c #A98669",
"*X c #B98866",
"=X c #B78F71",
"-X c #C38A5A",
";X c #D6A74D",
":X c #C58A69",
">X c #CA9369",
",X c #D79A6B",
"<X c #C89875",
"1X c #D49C74",
"2X c #D99D74",
"3X c #DB9C7A",
"4X c #CC8C70",
"5X c #E59971",
"6X c #DBA274",
"7X c #DCA37B",
"8X c #D6A478",
"9X c #D4A56B",
"0X c #E3A57C",
"qX c #E7A878",
"wX c #F7AC77",
"eX c #F3B27D",
"rX c #FAB37D",
"tX c #FAB479",
"yX c #E0A66E",
"uX c #F2D374",
"iX c #F6E76A",
"pX c #EAD66C",
"aX c #082883",
"sX c #162884",
"dX c #0E3599",
"fX c #1336A4",
"gX c #0C36AB",
"hX c #001D80",
"jX c #958B85",
"kX c #958E89",
"lX c #9A8E87",
"zX c #99918B",
"xX c #9D9995",
"cX c #8E8889",
"vX c #A39993",
"bX c #D3A583",
"nX c #DDA983",
"mX c #C6A384",
"MX c #E2A581",
"NX c #E6AC82",
"BX c #ECB286",
"VX c #F5B383",
"CX c #FCB483",
"ZX c #FDB984",
"AX c #FDBA8B",
"SX c #F7B688",
"DX c #F5B992",
"FX c #FBEF89",
"GX c #EFD4AA",
"HX c #FEC085",
"JX c #DFBAC2",
"KX c #EBD6D9",
"LX c #F2F5EE",
"PX c None",
/* pixels */
"PXPXPXPXPXPXPXPXPXPXPXPXPXPXPXPXPXPXB M V V n B V V V B Z B B b <.PXPXPXPXPXPXPXPXPX",
"PXPXPXPXPXPXPXPXPXPXPXPXPXPXPXPXPXPXp w w w w ; ; w e e e ; p - A PXPXPXPXPXPXPXPXPX",
"PXPXPXPXPXPXPXPXPXPXPXPXPXPXPXPXPXPXb t p y r r y y p n m 7 p t A PXPXPXPXPXPXPXPXPX",
"PXPXPXPXPXPXPXPXPXPXPXPXC b n n b j.g.s.h.s.g.h.s.d.E.9XpX8Xl.t.l.Z 7 <.PXPXPXPXPXPX",
"PXPXPXPXPXPXPXPXPXPXPXPXu w r e : q.S.B.Z.A.Z.m.m.m./.uXFXuXk.n.A.t w n PXPXPXPXPXPX",
"PXPXPXPXPXPXPXPXPXPXPXPXu e r r * 9.C.c.c.n.A.Z.N.z./.uXiXuXN.t.z.y e V PXPXPXPXPXPX",
"PXPXPXPXPXPXPXPXPXn C j.g.s.g.g.s.s.p.u.p.a.t.C.+X+X@XuXiXuXGXKXJXn w B PXPXPXPXPXPX",
"PXPXPXPXPXPXPXPX6.w - d.S.M.n.B.M.c.t.w.w.u.e.K.@X@X#XiXiXFXLXLXLXB ; V PXPXPXPXPXPX",
"PXPXPXPXPXPXPXPX,.t : 0.N.N.V.N.N.h.r.r.t.d.e.K.;X;X;XFXuXGXLXLXKXZ - N PXPXPXPXPXPX",
"PXPXPXPXPXPXn n j.e.q.s.B.V.C.p.a.u.r.p.9.p r j P K L 1.2.2.6.XX6.3 = 3 q % -.PXPXPX",
"PXPXPXPXPX<.p ; q.a.t.n.n.N.a.r.t.t.t.r.a + +               o     # # . +   q PXPXPX",
"PXPXPXPXPX,.y ; q.r.t.a.Z.B.N.0.d.0.i.d.9.O O > % > 3 6 6 6 0 0 6 O . X $   q PXPXPX",
"PXPXPXv M f.0.q.e.w.i.y.p.z.0.: u < u r : + . . X X . . O . . . . . O X X . $ q 0 0 ",
"PXPX<.w ; 8.t.d.t.t.i.y.u.t.s +   o # o O X X . & # X + . X + + #   .     .     . o ",
"PXPX,.e r 9.g.g.r.u.t.r.r.r.s   . @ % 0 5 X & X 6 3 6 + & & 6 6 0 0 % % % % $ $ $ X ",
"PXPX,.t * .X5X5XOXl c f.f.f.z h f >.=X&X{.    N &X4X[.    7 &X:X=XPXPXPXPXPXPXPXPXPX",
"PXPX,.i . :XAXHX.Xf I z z z z D k '.0XnX&X    K 8XNX=X+   m <XBXbXPXPXPXPXPXPXPXPXPX",
"PXPX<.-   :XAXZX.Xt k z z z z k g W.6X7XoX    M 9X6X$X#   m >X8X8XPXPXPXPXPXPXPXPXPX",
"b v oX3X4X$X|.}.-XyX9X}.k k !.:X*X1XVXVX=X    K qXtX,X#   H 6XrXqX X`.[.{.`.%XPXPXPX",
"r ; 4XAXZX.XJ J ,XtXZX$Xg g }.NX3XMXwXCX:X    K eXZX6X#   m NXAXwX'.W.W.Q.~.Q.PXPXPX",
"y ; :XAXeX$XL U.>XrXCX.Xg g }.6X3X0XrXrX:X  % K BXAX1X  6 M 7XAXqX!.I.Y.Y.I.'.PXPXPX",
"u - *XNX8X$XL I.,XAXCX-Xg D J !.T.$XSXeXqX<X<X1XtXrXqX<X<X1XeXBXwX7XyX6X6X3X2X*X{.{.",
"r : oX7X1X XU.I.>XAXCX-Xi D k l e !.AXeXrXSXAXCXwXrXrXAXZXZXtXtXtXCXCXCXZXCXVX.XW.1.",
"r - *X0X2X|.L I.>XZXrX$Xi D z z i '.SXtXrXDXBXSXSXVXSXVXVXeXVXeXVXrXVXVXeXCXBX XJ W.",
"r ; P '.R.$X<X*X0XrXrX$Xg k !.9X,X3XVXZX1X2.2.].nXqXqXnX0X0X0X0X0X0X0X0X0XqX0X}.U.Y.",
"t e g l e $XnX3XBXVXrX$Xg g $XHXCXCXwXZX*X    b 1X,X,X1X1X2X1X2X2X3X1X2X,X,X2X'.Y.Y.",
"p p h c g $XnX8XqXSXSX$Xi t .XZXwXCXAXDX=Xo @ :.mXnX8XbXbXbXbXbXbXbXbXbX8XbXbX X).1.",
"PXPX>.k z I.'.T.:X0XqX<X*X$X,XrXSX>X>.].:.  O 6 :.;.;.>.;.;.;.;.;.;.;.;.;.>.;.PXPXPX",
"PXPX{.k z k g e $X9X1X6X7X7XVXwXAX&X      $ 3 o                             q PXPXPX",
"PXPX].h D x D k $XqX3X8X8X3XMXSXAX*X            % % 3 % % %       # X X $ o q PXPXPX",
"PXPXPXPXPXL z k ~.&X[.}. X[.=XnX7X<XoX&XoXoX*X{.. o . @   0 XX&X XL K K P J ;.PXPXPX",
"PXPXPXPXPX1.c c F L I.J.J.G.|.9X9X3XMXnXnX6XNX&X$ & $ 3   H mX0X6X'.W.W.~.~.'.PXPXPX",
"PXPXPXPXPX2.c x L ].2.`.]._.oXqX8X8X3X2X0X2XnX&X+ o   X   m <XMX5X'.>.`.W.U.{.PXPXPX",
"PXPXPXPXPXPXPXPX<.&.&.&.5.) ,.|.|.|.|.|.|.}. X'.P P P K K P )._._.PXPXPX%XXX%XlXvXzX",
"PXPXPXPXPXPXPXPXPXW W T  ._ &.).U.I.I.L L L I.U.W.!.`.).`.>.w o N PXPXPXvXzXkXzXlXkX",
"PXPXPXPXPXPXPXPXPXE W ] +.` <.).1.W.R.`.W.W.W.T.Y.Y.Y.T.T.T.p w K PXPXPXvXkXkXkXlXkX",
"PXPXPXPXPXPX) ^ $.' ' ....aX) x n j.k.k.k.k.k.k.k.k.k.k.E.l.y - B PXPXPXPXPXPXPXPXPX",
"PXPXPXPXPX3.E R ' X.X.o...aX! e = 8.Z.n.c.c.c.c.c.c.c.c.N.a.d - <.PXPXPXPXPXPXPXPXPX",
"PXPXPXPXPX5.R E [  .X.{ X.aX~ t 4 d C.Z.Z.C.N.V.N.V.V.N.B.b.i - B PXPXPXPXPXPXPXPXPX",
"PXPXPXPXPX3.U R [  .X.o.] | ~ e p 8.v.x.z.a.x.x.x.x.x.x.x.d.i w A PXPXPXPXPXPXPXPXPX",
"PXPXPXPXPX3.Y W [  ...O...} ~ e r d i.y.e.i.w.y.y.u.y.w.r.y.p w A PXPXPXPXPXPXPXPXPX",
"PXPXPXPXPX3.U R [ | ....{ aX! e w s p.r.r.p.r.i.r.r.r.t.d.0.y w *.PXPXPXPXPXPXPXPXPX",
"PXPXPXPXPX4.U R [ | | ....aX[ Q ! v s 8.8.a a s a a s a a y r w C PXPXvXvXxXxXxXxXxX",
"PXPXPXPXPX4.U R ] | | ....| | ]  .^ - : : : : : - : : : r y p y y XXjXvXlXlXlXjXzXcX",
"PXPXPXPXPX4.U R [ { | o...o.| aX%.Q t t t p y e e e e t t e e ; 2 XXkXcXjXjXjXjXjXcX",
"PXPXPXPXPX3.U R [ { { { o...X.X.sX] ~ ! ! ! ! Q Q Q ! $.#.#.#.#.#.-.3.7.PXPXPXPXPXPX",
"PXPXPXPXPX3.U T ] o.o.aX} { X. .aX}  .} aX}  . . . .aXdXgXgXgXgXdXE 8 ^ PXPXPXPXPXPX",
"PXPXPXPXPX4.^ / ] sXO.......O.O.....{ O.O.O.o.o...+.sXfXfXfXgXgXdX/ Y =.PXPXPXPXPXPX",
"PXPXPXPXPXPXPXPX=.( / ] X.{ ..X.X.X.{ ........[ / / ' @.@.@.' ' $.PXPXPXPXPXPXPXPXPX",
"PXPXPXPXPXPXPXPXPXT U / +.+.+.+.sXsX+.o.+.{ +.] U ^ ( [ { X.E W =.PXPXPXPXPXPXPXPXPX",
"PXPXPXPXPXPXPXPXPXT _ _ ` hX`  . . ._ ' '  .aX{ E T _ { +.' [ / 5.PXPXPXPXPXPXPXPXPX",
"PXPXPXPXPXPXPXPXPX9 0 N K A A *.*.*.*.*.&.Q Q q Z Z V q 9 ) PXPXPXPXPXPXPXPXPXPXPXPX",
"PXPXPXPXPXPXPXPXPX, , z H.D.H.P.H.D.D.J.c 2 > g P.K.j.2 = K PXPXPXPXPXPXPXPXPXPXPXPX",
"PXPXPXPXPXPXPXPXPX, > x H.H.G.P.F.H.D.L.Z - O j P.P.F 4 O -.PXPXPXPXPXPXPXPXPXPXPXPX",
"PXPXPXPXPXPXPXPXPX, > x P.G.P.G.F.F.H.H.F.I.I.J h Z x L F.I.2.PXPXPXPXPXPXPXPXPXPXPX",
"PXPXPXPXPXPXPXPXPX, 4 x P.G.H.D.D.H.H.D.K.^.(.R.,   j ^.(.^.i O H PXPXPXPXPXPXPXPXPX",
"PXPXPXPXPXPXPXPXPX, 2 x P.L.H.H.H.G.H.H.K.^.(.~.u > h ^.(.~.j - G PXPXPXPXPXPXPXPXPX",
"PXPXPXPXPXPXPXPXPX, < g x x h x x x x l c J L.x 1 < f F F J f * G PXPXPXPXPXPXPXPXPX",
"PXPXPXPXPXPXPXPXPX, 7 < , > > > > > > , > = = > 1 < < = = - 1 = G PXPXPXPXPXPXPXPXPX",
"PXPXPXPXPXPXPXPXPX* < < 1 < 1 < < 1 < 1 < 1 < 1 < < < < 1 1 1 * G PXPXPXPXPXPXPXPXPX"
};
