/* XPM */
static char *result[] = {
/* columns rows colors chars-per-pixel */
"43 60 255 2 ",
"   c #000101",
".  c #020B03",
"X  c #0C0A05",
"o  c #0C0D0A",
"O  c #040607",
"+  c #120C04",
"@  c #120E0C",
"#  c #170403",
"$  c #061508",
"%  c #19150C",
"&  c #13130B",
"*  c #050812",
"=  c #150813",
"-  c #071714",
";  c #171714",
":  c #280400",
">  c #340100",
",  c #3B0101",
"<  c #370804",
"1  c #291909",
"2  c #341501",
"3  c #351B04",
"4  c #351A0B",
"5  c #3C1E0C",
"6  c #391806",
"7  c #261A1A",
"8  c #351D15",
"9  c #162119",
"0  c #3C2309",
"q  c #29241A",
"w  c #382314",
"e  c #27230F",
"r  c #06092E",
"t  c #2D162F",
"y  c #2A2927",
"u  c #372926",
"i  c #393936",
"p  c #303031",
"a  c #1D2423",
"s  c #440100",
"d  c #4B0001",
"f  c #490B08",
"g  c #570505",
"h  c #471A07",
"j  c #511612",
"k  c #670707",
"l  c #71110E",
"z  c #44240B",
"x  c #47240A",
"c  c #462617",
"v  c #4F2C16",
"b  c #6C3B16",
"n  c #451D22",
"m  c #492826",
"M  c #572929",
"N  c #4A352B",
"B  c #58372C",
"V  c #493835",
"C  c #573634",
"Z  c #522D30",
"A  c #6A3728",
"S  c #6E3330",
"D  c #7C441C",
"F  c #6D4E15",
"G  c #706D15",
"H  c #4B433A",
"J  c #55453C",
"K  c #7A4522",
"L  c #7A552A",
"P  c #765838",
"I  c #704B39",
"U  c #6F6D2C",
"Y  c #010559",
"T  c #041858",
"R  c #0A134C",
"E  c #122358",
"W  c #23284C",
"Q  c #2C355D",
"!  c #2E3057",
"~  c #00006C",
"^  c #000065",
"/  c #031F69",
"(  c #000077",
")  c #001971",
"_  c #062768",
"`  c #14256C",
"'  c #132A6D",
"]  c #162966",
"[  c #0C2B73",
"{  c #08277A",
"}  c #152B73",
"|  c #172679",
" . c #0F3072",
".. c #2F3167",
"X. c #251B50",
"o. c #593848",
"O. c #633241",
"+. c #364262",
"@. c #494648",
"#. c #5A4A47",
"$. c #5D5147",
"%. c #675348",
"&. c #795A47",
"*. c #675857",
"=. c #654849",
"-. c #7C6254",
";. c #6E724F",
":. c #695169",
">. c #757169",
",. c #4C5361",
"<. c #960705",
"1. c #871509",
"2. c #971618",
"3. c #960F0B",
"4. c #AA0702",
"5. c #B30101",
"6. c #B80806",
"7. c #A91408",
"8. c #B71306",
"9. c #B61813",
"0. c #A91211",
"q. c #A72417",
"w. c #BA271F",
"e. c #8D312C",
"r. c #A63625",
"t. c #B02C27",
"y. c #99250D",
"u. c #C6140A",
"i. c #D61D15",
"p. c #CB100D",
"a. c #D4210D",
"s. c #C62314",
"d. c #D32315",
"f. c #CD250D",
"g. c #DB3424",
"h. c #E21C14",
"j. c #83431C",
"k. c #8A481B",
"l. c #934619",
"z. c #984819",
"x. c #8B4609",
"c. c #854A25",
"v. c #87582B",
"b. c #985927",
"n. c #885C34",
"m. c #955E3A",
"M. c #8D472F",
"N. c #AC5128",
"B. c #8B6337",
"V. c #966439",
"C. c #B16931",
"Z. c #C8702B",
"A. c #E47D2A",
"S. c #855A45",
"D. c #9E4845",
"F. c #89654A",
"G. c #976946",
"H. c #896859",
"J. c #8B755A",
"K. c #95755B",
"L. c #96754E",
"P. c #A87550",
"I. c #897966",
"U. c #947963",
"Y. c #957966",
"T. c #88726C",
"R. c #A97B65",
"E. c #B37A66",
"W. c #D37B62",
"Q. c #76895E",
"!. c #7E817F",
"~. c #D99633",
"^. c #BACE37",
"/. c #DEE717",
"(. c #E8EA06",
"). c #E8F201",
"_. c #E6E616",
"`. c #F2EE02",
"'. c #D0D53B",
"]. c #DFE925",
"[. c #E5E527",
"{. c #E3DD2A",
"}. c #B4855A",
"|. c #9BAC5C",
" X c #ACAC59",
".X c #9B846A",
"XX c #9C8975",
"oX c #8F8A7F",
"OX c #A98567",
"+X c #BB8A68",
"@X c #B68B71",
"#X c #9DA86C",
"$X c #A1A467",
"%X c #C48A68",
"&X c #CC956A",
"*X c #D69A6A",
"=X c #C59678",
"-X c #D89A74",
";X c #CC8D76",
":X c #E3976E",
">X c #DBA47C",
",X c #D9A57A",
"<X c #CDB274",
"1X c #E8A77A",
"2X c #F9AD77",
"3X c #FBB37B",
"4X c #F9B47B",
"5X c #EEAB69",
"6X c #DCA44C",
"7X c #BEC553",
"8X c #C4C848",
"9X c #F2DA6F",
"0X c #F3EB6C",
"qX c #ECDE5A",
"wX c #000083",
"eX c #000299",
"rX c #01188D",
"tX c #052582",
"yX c #142783",
"uX c #0B3395",
"iX c #202489",
"pX c #0000A6",
"aX c #0016A6",
"sX c #0F3AA1",
"dX c #203BA3",
"fX c #455386",
"gX c #61668A",
"hX c #8F7B8A",
"jX c #A87E83",
"kX c #8B8686",
"lX c #988B86",
"zX c #9B928D",
"xX c #999488",
"cX c #918F90",
"vX c #A7968C",
"bX c #DAA983",
"nX c #D9A786",
"mX c #D8A78E",
"MX c #E8AA81",
"NX c #E6AA84",
"BX c #F9AC82",
"VX c #EBB183",
"CX c #F5B382",
"ZX c #FAB483",
"AX c #FDBB8B",
"SX c #F9B888",
"DX c #FAB893",
"FX c #E3AE93",
"GX c #DA9F82",
"HX c #FBEB81",
"JX c #EAC6AB",
"KX c #FDDF80",
"LX c #F4F6F5",
"PX c #F1E7CB",
"IX c None",
/* pixels */
"IXIXIXIXIXIXIXIXIXIXIXIXIXIXIXIXIXC M C C Z B N Z B B C C Z =.IXIXIXIXIXIXIXIXIXIXIXIX",
"IXIXIXIXIXIXIXIXIXIXIXIXIXIXIXIXIXf d d d d > s d s g f d s c IXIXIXIXIXIXIXIXIXIXIXIX",
"IXIXIXIXIXIXIXIXIXIXIXIXIXIXIXIXIXj g g g j f j g h c c j k Z IXIXIXIXIXIXIXIXIXIXIXIX",
"IXIXIXIXIXIXIXIXIXIXIXC M M M M S q.9.q.q.q.q.w.4.E.<X<XC.5.t.S M C IXIXIXIXIXIXIXIXIX",
"IXIXIXIXIXIXIXIXIXIXIXn d f j < 1.d.d.s.d.a.d.g.p.5X0X0XA.p.g.l , m IXIXIXIXIXIXIXIXIX",
"IXIXIXIXIXIXIXIXIXIXIXm s , g , l d.f.f.i.i.d.d.5.:XKX9XC.4.p.k , m IXIXIXIXIXIXIXIXIX",
"IXIXIXIXIXIXIXIXO.m S t.q.q.9.q.q.8.u.8.9.5.N.~.A.5X9X9XJXPXJXI > Z IXIXIXIXIXIXIXIXIX",
"IXIXIXIXIXIXIXIXm > k i.h.i.a.f.u.4.6.6.8.4.Z.6X~.qX0XqXPXLXLXH.> C IXIXIXIXIXIXIXIXIX",
"IXIXIXIXIXIXIXIXZ : j s.a.f.i.d.i.4.6.2.y.5.C.6X8X9X0X9XPXLXLXT.: Z IXIXIXIXIXIXIXIXIX",
"IXIXIXIXIXIXm S 2.3.1.u.f.w.8.8.u.7.0.1.j g I P P P J.L.kXhXhXN # 7 p a @.IXIXIXIXIXIX",
"IXIXIXIXIXM f g 4.8.8.a.f.f.6.4.7.7.6.l . .                     o . o   i IXIXIXIXIXIX",
"IXIXIXIXIXS s g 4.4.u.a.a.i.0.6.3.7.p.l $ : 1 1 1 e q q y y y % X & &   i IXIXIXIXIXIX",
"IXIXIXn B 2.<.l 7.7.8.7.p.9.h k k g k f X + X . . X # X . .   + o X @ X ; i y IXIXIXIX",
"IXIX#., h 2.9.8.6.4.4.3.u.3.$ $ - - $ - @ @ & & % @ + o @ ; ; & @ o o @ o o o i IXIXIX",
"IXIX#., f <.5.5.7.0.9.q.8.0.@ = = O .   = o   O   O o o       @ o o o o o O   i IXIXIX",
"IXIXO.d s E.:XW.S g l k g j = O V E.Y.;.    %.OXY.$.    F.OX.XI.IXIXIXIXIXIXIXIXIXIXIX",
"IXIX#.g , >XAXFX$.  - . O $ 7   %.>XNX.XO   H.FXbXF.    OXMXmXIXIXIXIXIXIXIXIXIXIXIXIX",
"IXIXC :   -XAXNXH     # =       B ,X1XK.*   F.,X,XB.O   R.1XnXIXIXIXIXIXIXIXIXIXIXIXIX",
"n V E.W.E.+X%X}.OXOX.Xy   V K.I.}.1XCXE.O   G.2X1XG.    +X3X1X@XJ.K.IXK.IXIXIXIXIXIXIX",
"j # ;XAXDXK.b m.2XAXbXy   $.,XmX1X4XAX+X*   P.AXAXP.  @ @XAXCX}.B.G.F.G.U.IXIXIXIXIXIX",
"f : ;XZXMXP.P G.5X3XbXy   $.,XmXNX4XSX}.    G.AXCXG.    @XDXVXP.F c.c.D H.IXIXIXIXIXIX",
"j : +XVX5XP.P G.1XZXbXq   p H.-.OXVX3X-XOXOX=XZX4X&XOXOXnXZX4X*X&X&X&X6X=X.XK.IXIXIXIX",
"j < E.bX*XG.P V.1XDX>X4 O X     I DX2XBXZXSXCX2X2XCXAXSX3X2X2XZXZXSX3X3XVXG.B.U.IXIXIX",
"f < E.NXnXL.K B.1XSX1X5 O O   O $.DX2XCXSXSXZXZXBXSXZXCX4XCXCXCXCXSXSXAX1XV.n.I.IXIXIX",
"f s -.Y.I.R.+XOXMXZX1Xu   N R.Y.+X3XCX=XXXY.;XNXMXNXNXMXMX1XNXMXNXVX1XVX,XV.v.K.IXIXIX",
"g f   O   %X1X,XCX4X1Xm O &.DXDXZX5XSXOXO O S.GX*X*X*X-X-X-X*X-X*X*X*X-X&XV.B.J.IXIXIX",
"g s 1 8 O =X,X,XBX4X>X    J 2X3X3XZXDX;X; O K.FX>X,XbXbXbXnXnXnX,XbX>XNX,XF.F.I.IXIXIX",
"IXIXp O . H.K.K.NX1X>XK.>.E.5X3XnXOX@XH.    $..XU.U.U.U.U.U.U.U..XK.K.U..XIXIXIXIXIXIX",
"IXIXi   -     7 @XnX:X>XmXNX2XDXvX      ; ;                     .       y IXIXIXIXIXIX",
"IXIX@.  o 7 - m =X1X>X>X<X>X3XAX&X            % & % ; % % % % % % % %   i IXIXIXIXIXIX",
"IXIXIXy V u . n E.%X%X+X}.%X1XCX=X&.-.&.&.H.@.  ; @ @ @ @ @ @ @ o ; i y @.IXIXIXIXIXIX",
"IXIXIXIXIXu   7 I v.L L L G.-X-XGXnXnXnX1XmXI.  7 @ + + @ o o o   y IXIXIXIXIXIXIXIXIX",
"IXIXIXIXIXp   9 -.V.n.F.n.P.,XnX>X>X,X,X5X>XJ.  #   X X   o & o   y IXIXIXIXIXIXIXIXIX",
"IXIXIXIXIXS g j M.N.z.N.r.m.+X+X+X+X%X+X+X+XL.c H y r 9 p y y y y H IXIXIXIXIXIXIXIXIX",
"IXIXcXcXXXr.4.7.4.4.<.4.5.y.b.v.v.n.S.P B.P n.B.-.@.Y W IXIXIXIXIXIXIXIXIXIXIXIXIXIXIX",
"IXIXcXzX.Xr.5.8.7.6.8.9.6.q.V.F.B.b.F.B.B.B.B.b.H.o.r W IXIXIXIXIXIXIXIXIXIXIXIXIXIXIX",
"IXIXxXcXXXr.5.7.0.0.0.2.<.e.:.*.*.:.*.*.*.$.*.:.gX.._ yXfXIXIXIXIXIXIXIXIXIXIXIXIXIXIX",
"lXlXoXlXXXr.5.9.7.4.2.g d t / ) [  .] ] ' ` { uXtXuXdXdXQ E +.IXIXIX#.< c w e J IXIXIX",
"oXxXoXoXOXt.5.4.5.u.0.g g t ` | tX( ~ wX( wXaXsXsXaXaXpX^ r Y IXIXIX@.: 2 4 2 J IXIXIX",
"xXcXxXxXXXD.M.r.3.1.1.t t X.] { +.G ;.>.;.U fXuXuXfXQ.>.;.U U >.IXIX&.b A 4 2 V IXIXIX",
"IXIXIXIXIXjXlXY.M d n E | ` } wX>.].].]./.).|.eXeX#X)./.{.[./.U = c b.C.V.z 3 3 m 8 $.",
"IXIXIXIXIXkXzXjXZ s s ` | | | ( ;.[./.].].). XpXpX X).[.(._._.F O z C.Z.C.z 3 4 3 > $.",
"IXIXIXIXIXIXzXlX#.O.o.{  .' } ~ ;._.).].].(.$XaXeX$X`._./._.(.G = 0 b.Z.b.z 3 4 0 < $.",
"IXIXIXIXIXIXIXIXkXzXhX{ { } } wX;.).[.)._.(.#XeXeX#X`.[.{._./.U = z j.z.j.z 3 4 5 < $.",
"IXIXIXIXIXIXIXIXcXvXkX .[ | | ~ ;.).).).).).|.pXpX X`.`.).)._.U * 0 j.z.j.5 6 4 w < $.",
"IXIXIXIXIXIXIXIX!.!.>.[ { | iX( ,.<X8X7X7X^..XeXeX|.8X'.^.^.8XF # 0 c.z.j.5 6 4 w < #.",
"IXIXIXIXIXlXcX!.! r R tX{ ` yX| _ ( ^ Y ~ Y ) yXyX_ Y ^ ^ ^ ~ q 3 6 b N.c.3 3 4 5 < #.",
"IXIXIXIXIXlXvXcXQ R E tXyXyX| }  .| }  .| | [ [ { | | | } yXiXu 3 6 j.z.D 0 4 3 0 > $.",
"IXIXIXIXIXvXzXcX+.W ..] ] ` ` | | yX| | | ` ` ` ` ] ` ] ] [ | t 1 5 e.z.D w 4 3 5 , $.",
"zXzXzXzXzXIXIXIXIXIXIX! T E ` [ ` ` ` ` ` [ ` T E R T T E T T 7 0 5 c.z.K 0 6 3 0 < $.",
"zXzXlXzXzXIXIXIXIXIXIXW R / tX{ tXrX) tX{ [ ) T T Y T T T R R a 2 6 j.z.j.h 6 0 3 : #.",
"zXzXvXzXzXIXIXIXIXIXIXp t W ......! ....] E Q ..Q Q ! Q Q W Q o.N N b l.D h 3 0 N N *.",
"IXIXIXIXIXIXIXIXJ u m L M.c.k.x.x.x.D b 2 w #.IXIXIXIXIXIXIXIXIXIXIX#., w 4 6 H IXIXIX",
"IXIXIXIXIXIXIXIXV > h l.z.x.k.l.l.l.v.A : 4 IXIXIXIXIXIXIXIXIXIXIXIX#.: 5 4 < H IXIXIX",
"IXIXIXIXIXIXIXIXV 2 z k.z.k.c.k.k.l.k.D j v %.IXIXIXIXIXIXIXIXIXIXIX*.c N N m %.IXIXIX",
"IXIXIXIXIXIXIXIXV 1 0 c.z.k.k.k.k.l.k.b.C.C.v.i J IXIXIXIXIXIXIXIXIXIXIXIXIXIXIXIXIXIX",
"IXIXIXIXIXIXIXIXH < x k.z.l.l.l.z.z.x.N.Z.Z.l.. h IXIXIXIXIXIXIXIXIXIXIXIXIXIXIXIXIXIX",
"IXIXIXIXIXIXIXIXV < x D k.k.D k.j.k.x.b.V.C.D % v IXIXIXIXIXIXIXIXIXIXIXIXIXIXIXIXIXIX",
"IXIXIXIXIXIXIXIXV 2 0 0 h x x x c z h z c v z 7 c IXIXIXIXIXIXIXIXIXIXIXIXIXIXIXIXIXIX",
"IXIXIXIXIXIXIXIXV 2 w 3 6 4 4 4 4 4 8 4 1 2 4 < c IXIXIXIXIXIXIXIXIXIXIXIXIXIXIXIXIXIX"
};
