/* XPM */
static char *result[] = {
/* columns rows colors chars-per-pixel */
"64 64 222 2 ",
"   c #39160C",
".  c #491F0A",
"X  c #4A261A",
"o  c #552A17",
"O  c #553315",
"+  c #593416",
"@  c #5B3C14",
"#  c #5B341A",
"$  c #5D3A1C",
"%  c #542B0D",
"&  c #613F1A",
"*  c #4F2B24",
"=  c #4D2924",
"-  c #532E25",
";  c #582E29",
":  c #533123",
">  c #5C3524",
",  c #5C3A26",
"<  c #55342B",
"1  c #5A352B",
"2  c #5C3A2C",
"3  c #563A26",
"4  c #5B3632",
"5  c #563831",
"6  c #5C3D34",
"7  c #5E3638",
"8  c #5D3E3B",
"9  c #563734",
"0  c #623C24",
"q  c #633D2D",
"w  c #683A28",
"e  c #623D34",
"r  c #623E3B",
"t  c #63411B",
"y  c #624114",
"u  c #5E4129",
"i  c #5D4135",
"p  c #5D4139",
"a  c #644225",
"s  c #6A4424",
"d  c #6D4B24",
"f  c #65432D",
"g  c #6D432B",
"h  c #6D4B2B",
"j  c #67482C",
"k  c #724A26",
"l  c #744C2A",
"z  c #714627",
"x  c #74512C",
"c  c #7B592C",
"v  c #634135",
"b  c #6A4334",
"n  c #6C4933",
"m  c #63423C",
"M  c #69423C",
"N  c #664836",
"B  c #734A33",
"V  c #724936",
"C  c #7B5233",
"Z  c #7A5738",
"A  c #643B42",
"S  c #644240",
"D  c #694442",
"F  c #664941",
"G  c #6C4B43",
"H  c #6C4548",
"J  c #714C45",
"K  c #79554A",
"L  c #7D5A52",
"P  c #815C3A",
"I  c #8C6B3C",
"U  c #825F41",
"Y  c #8B6242",
"T  c #886448",
"R  c #936E4B",
"E  c #997548",
"W  c #856256",
"Q  c #866555",
"!  c #9E7A5B",
"~  c #997555",
"^  c #9A6E51",
"/  c #A47945",
"(  c #A67A4B",
")  c #A87A4A",
"_  c #A67A53",
"`  c #AB7E53",
"'  c #A57958",
"]  c #936C64",
"[  c #9C7364",
"{  c #99756A",
"}  c #896660",
"|  c #A97D60",
" . c #BE8C3B",
".. c #BA883D",
"X. c #BE913E",
"o. c #C68F2E",
"O. c #CB8F2F",
"+. c #C5912E",
"@. c #CA902F",
"#. c #C48E35",
"$. c #CB8E35",
"%. c #C48E3B",
"&. c #CC8E3C",
"*. c #C69335",
"=. c #CA9235",
"-. c #C5923C",
";. c #CA923B",
":. c #CD993C",
">. c #A6824C",
",. c #BC8A43",
"<. c #BC8B4B",
"1. c #B68847",
"2. c #BB9343",
"3. c #B6944D",
"4. c #BD924C",
"5. c #BC9A4D",
"6. c #AC8253",
"7. c #AD845B",
"8. c #AE8C5D",
"9. c #A58458",
"0. c #B28B55",
"q. c #BB8B54",
"w. c #B68C5C",
"e. c #B98958",
"r. c #B18656",
"t. c #BD9353",
"y. c #B99557",
"u. c #AB8767",
"i. c #B88C68",
"p. c #BC9463",
"a. c #B89468",
"s. c #AA8979",
"d. c #B99576",
"f. c #B78E70",
"g. c #C48D43",
"h. c #CB8E43",
"j. c #C38C4B",
"k. c #CA8D4A",
"l. c #C49243",
"z. c #CA9342",
"x. c #C29946",
"c. c #C4934B",
"v. c #CA9249",
"b. c #C29B4E",
"n. c #C38E54",
"m. c #C59354",
"M. c #C89552",
"N. c #C49359",
"B. c #C59A55",
"V. c #C59B6E",
"C. c #C59968",
"Z. c #CA9E7A",
"A. c #C59973",
"S. c #DEAF6D",
"D. c #D6A96E",
"F. c #DFB26F",
"G. c #CCA278",
"H. c #DBAD73",
"J. c #DEAF7C",
"K. c #D3A97A",
"L. c #DCB275",
"P. c #DCB37B",
"I. c #E0B06E",
"U. c #E1AE76",
"Y. c #E1B575",
"T. c #E3B47C",
"R. c #E9B77D",
"E. c #E6B87E",
"W. c #C6A48E",
"Q. c #DBB587",
"!. c #C6A398",
"~. c #E1B689",
"^. c #E3BA86",
"/. c #E2B993",
"(. c #EABE96",
"). c #EABD9A",
"_. c #E6B898",
"`. c #DBB8A9",
"'. c #E5BBA6",
"]. c #E4BCB5",
"[. c #EEC39C",
"{. c #F4CC9D",
"}. c #F2C79B",
"|. c #E8C08C",
" X c #E8C5AB",
".X c #F2C6A4",
"XX c #F9CEA5",
"oX c #F4CBAB",
"OX c #F9CDAD",
"+X c #F7CDA5",
"@X c #FAD1A5",
"#X c #F4D1AE",
"$X c #FED4AC",
"%X c #FFD9AD",
"&X c #EAC5B5",
"*X c #EDCBB3",
"=X c #EEC9BD",
"-X c #E9C4BA",
";X c #F5CDB4",
":X c #FACDB4",
">X c #F5CDBA",
",X c #FACEBC",
"<X c #F0C5BC",
"1X c #F5D1B4",
"2X c #FDD2B4",
"3X c #FFD9B3",
"4X c #F5D1BC",
"5X c #FCD3BC",
"6X c #FED9BC",
"7X c #F5CDC2",
"8X c #FCCFC2",
"9X c #F6D1C2",
"0X c #FDD4C3",
"qX c #FED9C4",
"wX c #F7D2CB",
"eX c #FCD3CA",
"rX c #FFDBCB",
"tX c #FFD6D4",
"yX c #FFDAD2",
"uX c #FFE1C7",
"iX c #FFE4D3",
"pX c #FFE6DB",
/* pixels */
"p.A.~.XX6X6X5X8X0XeXrXrXqX6XqXqX0XrXqX0XqXqX0XrX0X0XrXqX0XqXrXeXtXtXtXtXtXtXtXtXtXtXyXtXtXtXyXyXrX4X=X0XyXyXeXeXeX<XyXrX0XrX XT ",
"C.r.A.).OX;X:XrX0X,X5X0X0X4X4X5X5X0X0X0X0X0X5X0X0X4X,X0X0X5X5X8XeXeXeXeXeXeXtXwXwXwXtXwXwXwXwXwXeX0X0X0X0X<X<X8X8XyX8X>X0X'.[ b ",
"(.A.` A._.OX:X;X5X5X5X0X0X0XqX5X0X8X0X8X0X0X8X0X0X0X0X0X0X0X0X0X0X8XeXeXeXeXwX8XwX9XeXeXwXwXwX9X,X,XrXrXeX7X7XeXyXeX8XeXoX[ 0 0 ",
"OX).Z.| i.).OX.X2X5X5X2X6XrXqXqX0X0X0X0X0X0X0X0X0XqXeX0XeX0XeX0X0X0X0X8X8X0X8X8XqXqXqXqXqXqXqXqX0X>X>X,XrXtXeX7XyX7XyX>X[ e w X ",
").2XOXZ._ i./.$X3X3X2XOX;X0X0X0XeXeX0XeX0XeXeXeX0X0X0X8XeX8X0X0X0X6X0X5X5X5X6X5X5X6X4X4X4X6X4X6XqX4X*X>X9XrX0X7XwXtX].[ o r U X ",
"_.:X6X.XC.( p.Q.+X%X3X1X;X5X0X5X8X0X0X0X0X8X0X8X8X8X8X8X8X8X8X8X,X:X5X2X,X5X,X5X5X5X6X4X4X4X6X4X4X6XqX6X4X9XeXeXtX].[ ; ; r r r ",
",X:X:X2X[.G.w.0.Q.{.%X$X2X0X0X0X8X8X8X8X8X8X8X0XeX0XeX8X0X8XeX0X,X5X5X5X5X5X5X5X6X0X6XqX6XqXqX6X#X6XuXqX0X9XrXwX].] ; ; W w ; J ",
",X,X5X:X$X}.P.0.C.P.{.oXOX5X0X0X0X8XeX0X0X0X8X0X8X0X8X0X0X0X8X0X0X0X0X0X0X0X5X0XqX0X0XqX6XqX0XqX6X4X6X4XqXrX=X`.{ ; o A A r r X ",
"8X8X6X3X%X{.|.Q.3.V.Q.[.2XqXqX;X,X,X,X,X8X,X,X,X8X8X8X8X8X,X8X8X8X8X8X8X8X0X,X0X0X0X0X0X9X0X0X4X4X6X*XqX>XeX<X] = ; r r r A r w ",
"8X5X0X6X%X@X{.{.K.0.w.(.6X2X;XqX0X5X,X,X0X,X,X0X5X5X5X5X5X0X5X5X0X0X0X0XeX8X0XeX8X0X0X8X9X9X9X4X6X4XuX`.eX9XW e r r r e r w r r ",
",X,X5X5X2X3X%X%X{.V.7.Z.)..XoX5X6X,X,X,X5X0X5X,X,X5X5X,X,X5X,X,X8X8X8X8X8X8X8X8X0X8X8X7X8X,X0X9X4X4X*XuX9X] - e A H r e e e e e ",
">X,X>X4X2X3X3X3X@X@XK.' i.).2X:X:X:X:X:X,X6X6X5X5X,X:X5X5X,X5X5X,X,X,X8X8X,X,X,X0X0X0X0X0X9X0X9X9X4X4XrX{   e J e e r r r r e ; ",
">X>X5X5X5X5X2X2XoX3X.Xf.' Z..X:XOX:X5X:X:X2X5X:X2X:X5X2X:X2X2X,X,X,X5X5X,X5X5X5X5X0X5X6X0X5X5X6XqX9XiX{   : 5 r 5 r r v e e e q ",
"4X4X0X0XqX0X5X2X5X:XOX+XZ.` C.).OX2X6X2X:X2X:XOX2X2X2X2X2X2X2X2X:X,X,X2X,X5X5X2X:X:X5X5X5X5X5X1XqXwXs.: : G 8 1 m m v e e e q q ",
"4X4XqXqX0X0X0X0XrX:X:X6X'.N.` A._.OX5X2XOX$X2X$X$XOX:X2X2X2X:X$X2X:X:X:X2X:X2X2X:X$X2X2X2X2X2X2X X!.< < L r G r r m v 8 6 2 2 , ",
";X;X4X4X0X0XeX0X>X5X,XOX.X).G.r.K.(.$XOXXX$X2X%X$X$X$X$XXX$X$X$X%X$X$X%X%X$X$X$X%X$X$X@X%X2X3X6X`.K m i 5 v 7 v < 4 v N v v , - ",
"5X5X0X0X0X0X0X0X0X,X;X;X5X2X/.Z.V.p.^.^.P.T.H.^.R.R.R.R.R.R.^.E.T.Y.T.T.T.~.T.T.L.L.P.P.Q./.Q.d.U q 2 1 5 M 8 5 i p 8 i i v 4 , ",
"4X5X5X0X0X0X0X0X0X5X>X;X6X6X*X/.p.r.C.C.N.B.n.M.M.M.M.M.M.M.m.B.M.M.m.N.N.m.m.M.b.c.5.t.p.V.f.! V < q q 2 m v m p i i p v i 5 2 ",
",X5X5X0X0X0X0X0X0X0X,X;X5XqX6X$XV.0.0.1.1.j.,.) ,.,.,.,.1.,.,.,.,.,.,.1.<.,.,.,.,...1.3.3.8.8.R 0 o e b 2 v v m p 6 p i v i 2 2 ",
"5X5X0X6XeX0X0X0X5X5X>X;X2X6X6X3XP.t.m.<.<.k.g.#.g.g.g.l.l.,.l.,.l.2.c.c.k.k.j.c.2.X.l.b.3.p.a.~ w > b b 2 i 8 p i 8 6 i v v 4 2 ",
"5X,X6X0X0X0X0X0X,X5X4X;X1X1X2X2XH.t.B.c.j.c.%.%.%.%.g.%.%. .g.g.%.%.g.g.g.g.g.%.%. .X.2.<.t.w.E B > b b 2 v 6 p i p 8 p p v 4 2 ",
"5X5X0X0X0X0X0X0X5X0X0X5X5X6X1X@XD.c.M.g.,.z.%.%.%.;.;.%.-.-.-.%.-.%.%.-.g.h.%.-.%.#.*.X.,.t.q.( B > q q e m m m p 6 i i v i 2 2 ",
",X5X6X0XeX0X0X0X5X0X0X5X5X6X2X@XH.c.l.l.%.z.%.&.;.;.;.;.;.-.;.:.*.=.z.z.;.z.;.;.;.=.z.x.,.b.N.) g - q e 2 m v m 8 i i i r v 5 2 ",
",X5X0X0X0X0X0X0X9X5X5X1X2X6X6X@XY.l.%. . .z.;.$.$.O.$.*.$.$.*.=.=.*.$.&.&.&.$.$.O.+.;.*. .c.q.) g # b b 2 v 6 p p 6 8 i i i 2 2 ",
";X>X5X0XqX0X0X0X0X6X0X6X5X2X2X%XI.l.-.-.$.;.$.=.$.=.O.=.=.*.=.=.=.=.&.$.&.&.$.$.@.=.=.*.-.c.<./ z > q b q 8 m p 6 8 9 p p v i 2 ",
"5X5X0X6XeX0X0X0X0X0X0X5X5X6X6X%XI.l.z.-.%.:.#.=.$.O.=.=.=.=.=.*.=.=.$.$.&.$.:.O.O.@.@.*.-.c.,.) g > q v 6 v m p 6 i p i i i 6 2 ",
">X5X5X0XqX0X0X0X5X0X0X6X5X2X2X%XF.l.l.-.%.:.#.=.O.=.=.O.=.=.;.=.=.=.O.:.&.&.$.O.O.=.*.#.l.c.<.) z > 0 v q i m v p p 9 i v v 2 2 ",
",X5X5X0XeX0X0X0X0X5X0X6X6X1X5X%XF.2.l.-.%.:.#.=.=.O.=.=.*.*.*.*.=.O.$.=.$.&.&.$.@.=.*.#.-.c.<.) z > q v e e m p 6 6 i i i 6 6 2 ",
";X5X0X0X0X0XeX0X8X5X6X6X5X5X5X%XL.l.l.l.-.-.#.#.:.=.=.;.=.;.=.*.O.O.:.&.:.&.&.&.$.=.*.%.g.k.<.( w 0 q e 6 e m i 6 p 6 i e v 4 2 ",
">X5X5X0X0XqX0X0X0X0X0X6X5X2X2X%XL.l.c.l.-.z.%.*.:.=.;.=.*.*.-.;.:.&.&.&.&.&.&.O.=.*.:.#.z.n.q.( z q q e q v m i p 6 6 i v i 6 2 ",
"2X5X5X5X0X0X0X0X5X0X0X5X5X2X6X%XY.c.x.l.X.z.-.%.&.$.=.;.;.-.-.;.&.$.&.h.&.&.&.:.$.=.*. .,.M.<.( g > q e e 6 p i i 6 6 i i v 6 2 ",
">X5X0X0XeXqX0X0X0X5X0X5X5X2X2X3XL.c.c.l.,.z.%.*.:.$.;.;.-.-.-.-.$.:.h.:.&.&.&.&.*.:.-.%.4.m.e.( g q w e e i m 8 i 6 8 p v v 4 2 ",
">X5X5X5X0X0X0X0X0XqX0X5X6X2X5X$XL.4.4.l.,.g.%.%.:.*.*.*.*.*.*.X.:.:.-.z.l.-.-.*.+.*.*.X.2.B.e.' g 1 q b 2 e N v e 6 6 e v m e 4 ",
";X,X5X0X0X0X0X8X0X0X5X6X5X6X2X$XL.<.c.4.g.g.%.%.;.*.*.-.-.*.*.*.;.z.-.x.:.-.*.:.+.*.*.X.c.B.e._ b 1 e m e 2 v v e q e r r e e 4 ",
",X5X5X0X0X0X0X0XqX6X0X5X5X6X5X%XP.<.4.j.g.l.&.&.;.&.;.;.-.-.-.-.;.-.-.-.z.;.*.*.+.*.+. .2.N.e._ g 2 q N q q b v q q e e r r e 4 ",
";X>X5X0XeX0X0X8X0X0X5X6X5X2X5X$XJ.n.n.j.j.v...g.h.z.;.-.:.-.l.-.-.-.-.l.-.:.*.=.+.*.*. .c.m.q._ b 1 q v 4 q b v e e e e r r e 4 ",
",X5X5X5XeX0X0X0X0X0X6X6X5X5X2X%XJ.n.n.j.j.k.k.h.h.h.h.;.-.h.z.z.-.*.-.;.-.;.*.=.+.=.*. .l.M.q._ g , e v q e M e e e e e e M e q ",
";X5X5X0X0X0X0X0X0X0X0X5X6X2X6X%XJ.n.n.j.k.k.g.h.h.&.h.h.h.z.g.;.&.*.;.%.&.;.$.=.+.@.=.*.l.M.<.( g 1 q v 4 q M v e e e e e e e 4 ",
";X5X5X0X0X0X0X0X0X6X5X6X5X5X2X$XU.j.n.j.g.k.&.h.&.h.&.&.;.h.h.;.*.&.&.&.&.&.$.$.+.=.+. .l.M.<.( g 2 q N q q m e e e e e r e e 1 ",
">X,X4X0X0X0X0X0X0X0X0X5X6X3X5X$XU.j.v.g.h.h.&.&.&.&.&.&.h.&.&.;.&.*.&.&.&.&.$.=.@.@.*.#.g.b.<.( a , 2 b e 6 M e r e r e e e e 1 ",
"5X5X6X0X0X0X0X0XqX5X5X0XqX2X1X%XY.g. .z.z.%.&.$.$.$.$.$.$.$.&.;.$.$.&.&.&.&.&.$.$.o.&.&. .2.<.( l , 2 v e r V r r r e e e e e w ",
",X5X0X6X0X0X0X0X0X5X0X6X6X2X2X$XS.z. .z.&.%.$.$.$.$.$.$.$.&.#.&.#.&.&.&.&.&.&.&.$.#.;.%.X.l.<./ h , q b e e D r r r r r e e 4 q ",
"5X5X5X0XeX0X0X0X5X0X0X5X5X2X5X@XS.l. .l.&.%.&.$.;.$.$.&.&.%.;.%.&.$.&.h.h.h.&.&.;.*.*.-.X.b.5.I a , b N e e A D r r r e e q q 1 ",
">X5X0X0X0X0X0X8X,XqXqX5X4X6X6X@XS.l. .l.%.%.&.&.&.&.$.&.;.;.z.;.h.h.h.h.h.k.k.h.z.-.-.-.-.b.5.>.s , w V q e r r r r r e e e q 1 ",
",X5X6X0X0X0X0X0X,X0XqX1X2X6X6XoXH.c.,.l.g.g.z.%.&.g.&.&.g.g.g.h.&.%.h.h.k.k.k.h.z.-.-.2.2.b.3.I d $ , v e e r r r r r e e e q > ",
"5X5X0X0X0XeX0X0X5X0X0X5X2X6X2X@XH.B.,.j.g.l.v.g.%.g.g.g.g.g.j.j.g.%.g.g.g.j.j.g.l.-.:.5.2.b.3.>.d , , q e r A e A A r r r q q , ",
"5X5X6X0X0X0X0X0X0X4X5X6X5X1X1X@XK.B.q.n.j.n.M.j.j.j.j.j.j.j.j.j.g.g.g.k.j.k.k.j.g.l.c.x.2.5.3.>.l a 0 v 1 r A r A r r e e q 2 , ",
"5X,X0X0XeX0X0X0X0X>X>X5XqX;X;X$XK.C.q.q.q.n.N.<.N.n.n.N.N.N.N.n.m.k.n.M.n.n.n.n.c.4.B.b.3.3.y.>.x s f f q e H H A A e r e e q 2 ",
"8X8X7X0X0X0X0X0X0X>X4XqXqX6X#XoXA.C.u.r.` r.` ) ` ` ` ` ` ` ` ` ` 6.>.6.` 6.6.6.6.6.0.0.>.E 9.G.~ x # f V J D A A A A r r e e w ",
",X5X0X0XrXeXwX7XeXrXrX=X*XuX*Xd.C l z z k k l k l l l l l z l l k d d d d d d d d s d l l x Y 9.a.E x a v M r 7 A A A r r r e ; ",
",X5X0XeXrX0XeXeXrXeX9X4X*X4XW.Z + + # + o & # 0 # & & # & # & # # # # $ # # # # $ O + $ $ $ g P u.u.! Z a , q 8 A r r r r r e ; ",
">X5X0XqXqXqX9X9XiX-X4XuX*XW.Q X w q e b w q e w e e w w e w e q f f f v f b g f v a v n n , q f Y u.d.[ V # 2 n e r e r r r e 1 ",
"5X2X5X6X9X0X9XwXeX-XyXiXW.K u : 9 r m r 8 8 p p r r m M r M M m m v v v e v r v e e v m M v e e u T u.d.~ n u u q q w e e r e e ",
"5X2X6X1X5X9XqX9X-XrXtX!.L 3 3 V 9 8 8 r 8 p p p r r 8 m r r 8 8 r 8 8 r 8 8 8 8 r 8 8 4 8 8 m m f j K u.s.R d O t 0 0 w e e r e ",
"1X#X1X4X4X9X9XeXwXwX!.L p < < G S 8 8 8 8 S p p r m A A r A S S S S m m S S p S S S v 8 8 8 p p M f f T 9.u.R d t $ w w w r r r ",
"#X#X1X6X6X9X4X9XpX-XL X m F < 5 A 8 8 8 8 8 p p A r m 8 r p p 8 9 8 8 8 8 8 8 8 9 8 S p S p p 6 m f , g R d.a.E y y & w w w r A ",
"#X#X#X6X4X*X9XpX`.W 6 8 F S 8 9 p p p p p p p p p p p p p p p p p p p i p p 8 i 6 6 6 9 i 9 6 5 u i n u @ I a.8.I c t & B b ; ; ",
"6X#X#X6X4X4X=X-XW 9 * r S r 8 6 p p p p p p p p p p p p p p p p p i p i i i i i i 6 6 i i i 3 i i i j u t x E 9.8.I t + w V w ; ",
" XuXuX X4XiX`.{ 9 - 6 F p 6 8 i i i p p p p p p p p i i p i i i i i i u i i i i i u 6 u i i i i i 2 u u u @ d E a.9.P t w w w w ",
" X6XuX*X=X*Xs.* 8 8 F H 8 6 p 8 i i i p p p i i i i p i i i p i i i i i i i i i i i i i i i i i i i u u u @ @ c 9.u.8.R w # w w ",
"3X X4XiX`.L 5 i m 6 8 8 9 m F p p p 9 p p p 9 p p i p i p p p i i p i i v i v i i i v i v i v i 3 i u 3 j u @ j C ^ f.f.Y z w o ",
"6X#X4X X9.X X G m < 5 p p m p 5 p 8 p p 9 p p 8 p p p p p p p p 8 v e r v 6 8 e e 8 6 e 6 6 6 v i j u 3 f j a & a B ' f.| ^ P . ",
" XuX`.9.2 2 m v F 5 i F p i i 5 8 8 8 p p p 8 8 8 8 p p 8 8 8 S r e v 8 r r e r e r 7 8 e 8 8 6 i u u u u j h , 0 + V ' | i.^ % ",
"-X`.s.u X K K < m 5 p F i 3 i p 8 8 8 8 8 p S 8 8 p p 9 8 S 8 p 8 r r r 8 r p r 4 8 8 r 7 8 i i i u u N 3 , n f 0 % w Y ' A.n.k "
};
